<?xml version="1.0" encoding="utf-8"?>
<!-- Generator: Adobe Illustrator 24.0.1, SVG Export Plug-In . SVG Version: 6.00 Build 0)  -->
<svg version="1.1" id="Capa_1" xmlns="http://www.w3.org/2000/svg" xmlns:xlink="http://www.w3.org/1999/xlink" x="0px" y="0px"
	 viewBox="0 0 467.6 46.5" style="enable-background:new 0 0 467.6 46.5;" xml:space="preserve">
<style type="text/css">
	.st0{fill:#1D1D1B;}
	.st1{fill:#87A1FF;}
	.st2{fill:#9CC4FF;}
	.st3{fill:#FFFFFF;}
	.st4{fill:#697900;}
	.st5{fill:#859300;}
	.st6{fill:#B6006F;}
	.st7{fill:#EF0083;}
	.st8{fill:#CC0000;}
	.st9{fill:#FF5200;}
	.st10{fill:#FFA800;}
	.st11{fill:#FFC02C;}
</style>
<g>
	<path class="st0" d="M5.8,24c0,12.1,9.1,20.4,20.2,20.4c4,0,6.5-1.2,9.7-2.6c0-2,0-10.3,0-10.3c-2.6,1.7-5.3,3.2-9.1,3.2
		c-6.1,0-10.7-4.2-10.7-10.5c0-6.7,3.6-11.6,10.2-11.6c4.8,0,7.3,1.5,9.7,3.4c0-4.6,0-10.7,0-10.7c-3.6-2-6.1-2.5-10.2-2.5
		C14.3,2.8,5.8,11.4,5.8,24z"/>
	<path class="st0" d="M65.2,2.5c-11.7,0-21.3,8.5-21.3,21.1c0,12.1,8.8,21.2,21.2,21.2c11.8,0,21.3-8.8,21.3-21.5
		C86.5,11.6,77.3,2.5,65.2,2.5z M65.1,35.2c-6.5,0-11-4.7-11-11.4s4.6-11.6,11.1-11.6c6.4,0,11.1,4.9,11.1,11.3
		C76.3,30.3,71.7,35.2,65.1,35.2z"/>
	<polygon class="st0" points="124.5,4 116.5,25.5 108.3,4 98.5,4 92.5,43.3 102.7,43.3 105.4,20.6 114,43.3 118.8,43.3 127.5,20.7 
		130.5,43.3 140.8,43.3 134.7,4 	"/>
	<polygon class="st0" points="177.7,4 169.6,25.5 161.5,4 151.7,4 145.7,43.3 155.8,43.3 158.5,20.6 167.2,43.3 171.9,43.3 
		180.7,20.7 183.7,43.3 194,43.3 187.8,4 	"/>
	<path class="st0" d="M226.2,28.6c0,4.6-3.2,6.6-6.8,6.6c-3.8,0-6.9-1.9-6.9-7.1c0-8,0-24.2,0-24.2h-10.1c0,0,0,17.2,0,26.3
		c0,9.7,8.3,14.2,16.8,14.2c11.2,0,17.2-6.3,17.2-15.3c0-8.8,0-25.2,0-25.2h-10.2C226.2,12,226.2,20.7,226.2,28.6z"/>
	<polygon class="st0" points="276.1,27.3 258.1,4 248,4 248,43.3 258.1,43.3 258.1,19.8 275.8,43.3 285.8,43.3 285.8,4 276.1,4 	"/>
	<rect x="297.5" y="4" class="st0" width="10.1" height="39.4"/>
	<path class="st0" d="M317.1,24c0,12.1,9.1,20.4,20.2,20.4c4,0,6.5-1.2,9.7-2.6c0-2,0-10.3,0-10.3c-2.6,1.7-5.3,3.2-9.1,3.2
		c-6.1,0-10.7-4.2-10.7-10.5c0-6.7,3.6-11.6,10.2-11.6c4.8,0,7.3,1.5,9.7,3.4c0-4.6,0-10.7,0-10.7c-3.6-2-6.1-2.5-10.2-2.5
		C325.6,2.8,317.1,11.4,317.1,24z"/>
	<path class="st0" d="M429.6,16.3c0-8.4-6.3-12.3-13.2-12.3C414.3,4,401,4,401,4v39.4h10.1V29.5h2c1.1,1.8,8.1,13.9,8.1,13.9h12
		c0,0-9.3-14.8-10.3-16.3C427.3,25.4,429.6,21.7,429.6,16.3z M414.1,21.7h-3.2v-9.9h3.3c3.3,0,5.1,1.6,5.1,4.9
		C419.3,20.5,416.9,21.7,414.1,21.7z"/>
	<polygon class="st0" points="437.1,4 437.1,13.4 445,13.4 445,43.4 455.5,43.4 455.5,13.4 463.4,13.4 463.4,4 	"/>
</g>
<g id="XMLID_3_">
	<g>
		<path d="M374.4,2.3c5.8,0.1,11.3,2.5,15.3,6.7c4,4.2,6.2,9.7,6.1,15.6c-0.1,3.8-1.1,7.5-3.1,10.8c-1,1.7-2.2,3.2-3.6,4.6
			c-1.2,1.2-2.6,2.2-4,3.1c-1.4,0.8-3,0.8-4.4,0c-1.4-0.8-2.2-2.3-2.2-3.9l0.1-5.7c0-2.7-2.1-4.9-4.7-4.9c-1.3,0-2.5,0.5-3.4,1.4
			c-0.9,0.9-1.5,2.1-1.5,3.4l-0.1,5.7c0,1.6-0.9,3-2.3,3.8c-1.4,0.8-3.1,0.7-4.4-0.2c-3.1-2-5.6-4.7-7.4-7.9
			c-1.8-3.3-2.7-7.1-2.7-10.9c0.1-5.8,2.5-11.3,6.7-15.3c0,0,0,0,0,0C363,4.3,368.6,2.2,374.4,2.3z M395.2,24.5
			c0.2-11.7-9.1-21.3-20.8-21.6c-11.7-0.2-21.4,9.1-21.6,20.8c-0.1,7.6,3.7,14.4,9.7,18.2c2.4,1.6,5.6-0.1,5.7-3l0.1-5.7
			c0.1-3.1,2.6-5.5,5.6-5.4c1.5,0,2.9,0.7,3.9,1.7c1,1,1.6,2.4,1.5,3.9l-0.1,5.7c-0.1,2.9,3.1,4.7,5.5,3.3
			C390.9,38.8,395,32.2,395.2,24.5z"/>
		<path d="M386.7,14c0.8,0.7,1.3,1.7,1.2,2.8c0,0.2,0,0.3,0,0.5c0,0.1,0,0.2,0,0.3c0,0,0,0.1,0,0.1c0,0.1,0,0.2-0.1,0.3
			c0,0.1-0.1,0.2-0.1,0.3c0,0.1-0.1,0.2-0.2,0.3c-0.4,0.7-0.9,1.2-1.6,1.6c-0.1,0.1-0.2,0.1-0.3,0.1c-0.1,0-0.2,0.1-0.3,0.1
			c-0.1,0-0.2,0-0.3,0.1c0,0-0.1,0-0.1,0c-0.1,0-0.2,0-0.3,0c-0.2,0-0.3,0-0.5,0c-0.2,0-0.5,0-0.7-0.1c-0.1,0-0.1,0-0.2,0
			c-0.3-0.1-0.5-0.2-0.8-0.3c0,0,0,0-0.1,0c0,0,0,0,0,0c-0.4-0.2-0.8-0.5-1-0.9c0,0,0,0,0,0c-0.1-0.2-0.3-0.4-0.4-0.6
			c0-0.1-0.1-0.2-0.1-0.2c0,0,0-0.1,0-0.1c0.3,0.1,0.6,0.2,0.9,0.3c0.5,0.8,1.4,1.3,2.4,1.3c0.8,0,1.6-0.3,2.1-0.8s0.9-1.3,0.9-2.1
			c0-1-0.5-1.9-1.2-2.5c0-0.3-0.1-0.6-0.2-0.9c0,0,0,0,0,0c0,0,0,0,0.1,0c0.1,0,0.2,0.1,0.2,0.1c0,0,0,0,0,0c0,0,0.1,0.1,0.1,0.1
			c0,0,0.1,0,0.1,0.1c0,0,0,0,0.1,0c0.1,0,0.1,0.1,0.2,0.1c0,0,0,0,0,0C386.6,14,386.7,14,386.7,14z"/>
		<path d="M386.6,13.9c0,0,0.1,0.1,0.1,0.1C386.7,14,386.6,14,386.6,13.9z"/>
		<path d="M386.4,13.8c0.1,0,0.1,0.1,0.2,0.1C386.5,13.9,386.4,13.8,386.4,13.8z"/>
		<path d="M386.4,13.8C386.4,13.8,386.3,13.8,386.4,13.8C386.3,13.8,386.4,13.8,386.4,13.8z"/>
		<path d="M386.2,13.7c0,0-0.1-0.1-0.1-0.1C386.1,13.6,386.2,13.7,386.2,13.7z"/>
		<path d="M386.1,13.6c-0.1,0-0.1-0.1-0.2-0.1C385.9,13.5,386,13.6,386.1,13.6z"/>
		<path d="M385.8,13.5C385.8,13.5,385.8,13.5,385.8,13.5C385.8,13.5,385.8,13.5,385.8,13.5z"/>
		<path d="M384.3,12.4c2.4,0,4.3,2,4.3,4.5c0,1.2-0.5,2.3-1.3,3.1c-0.8,0.8-1.9,1.2-3.1,1.2c-2.4,0-4.3-2-4.3-4.5
			c0-1.2,0.5-2.3,1.3-3.1C382.1,12.8,383.2,12.4,384.3,12.4z M387.9,16.9c0-1.1-0.5-2.1-1.2-2.8c0,0-0.1-0.1-0.1-0.1c0,0,0,0,0,0
			c-0.1-0.1-0.1-0.1-0.2-0.1c0,0,0,0-0.1,0c0,0-0.1,0-0.1-0.1c0,0-0.1-0.1-0.1-0.1c0,0,0,0,0,0c-0.1,0-0.1-0.1-0.2-0.1
			c0,0,0,0-0.1,0c0,0,0,0,0,0c-0.4-0.2-0.9-0.3-1.4-0.3c-2,0-3.7,1.6-3.7,3.6c0,0.5,0.1,1.1,0.3,1.5c0,0.1,0.1,0.2,0.1,0.2
			c0.1,0.2,0.2,0.4,0.4,0.6c0,0,0,0,0,0c0.3,0.4,0.6,0.7,1,0.9c0,0,0,0,0,0c0,0,0,0,0.1,0c0.2,0.1,0.5,0.2,0.8,0.3
			c0.1,0,0.1,0,0.2,0c0.2,0,0.5,0.1,0.7,0.1c0.2,0,0.3,0,0.5,0c0.1,0,0.2,0,0.3,0c0,0,0.1,0,0.1,0c0.1,0,0.2,0,0.3-0.1
			c0.1,0,0.2-0.1,0.3-0.1c0.1,0,0.2-0.1,0.3-0.1c0.7-0.3,1.3-0.9,1.6-1.6c0.1-0.1,0.1-0.2,0.2-0.3c0-0.1,0.1-0.2,0.1-0.3
			c0-0.1,0.1-0.2,0.1-0.3c0,0,0-0.1,0-0.1c0-0.1,0-0.2,0-0.3C387.9,17.2,387.9,17,387.9,16.9z"/>
		<path d="M385.8,13.4c0.1,0.3,0.2,0.6,0.2,0.9c-0.5-0.3-1.1-0.6-1.7-0.6c-0.8,0-1.6,0.3-2.1,0.8c-0.6,0.6-0.9,1.3-0.9,2.1
			c0,0.6,0.2,1.2,0.5,1.7c-0.3-0.1-0.6-0.1-0.9-0.3c0,0,0,0.1,0,0.1c-0.2-0.5-0.3-1-0.3-1.5c0-2,1.7-3.7,3.7-3.6
			C384.8,13.1,385.3,13.2,385.8,13.4z"/>
		<path class="st1" d="M386,14.4c0.8,0.6,1.3,1.5,1.2,2.5c0,0.8-0.3,1.5-0.9,2.1s-1.3,0.9-2.1,0.8c-1,0-1.9-0.5-2.4-1.3
			c0.2,0,0.3,0,0.5,0c2,0,3.7-1.6,3.7-3.6C386,14.7,386,14.5,386,14.4z"/>
		<path d="M374.4,3c11.7,0.2,21,9.9,20.8,21.6c-0.1,7.6-4.3,14.2-10.4,17.8c-2.5,1.5-5.6-0.4-5.5-3.3l0.1-5.7c0-1.5-0.6-2.9-1.5-3.9
			c-1-1-2.4-1.7-3.9-1.7c-3.1-0.1-5.6,2.4-5.6,5.4l-0.1,5.7c-0.1,2.9-3.3,4.6-5.7,3c-6-3.8-9.8-10.6-9.7-18.2
			C353,12.1,362.7,2.7,374.4,3z M394.5,24.5c0.2-11.3-8.8-20.6-20.1-20.9c-5.5-0.1-10.6,1.9-14.6,5.7c0,0,0,0,0,0
			c-3.9,3.8-6.2,8.9-6.3,14.3c-0.1,7.1,3.4,13.7,9.4,17.6c0.9,0.6,2.1,0.6,3,0.1c1-0.5,1.6-1.5,1.6-2.6l0.1-5.7
			c0-1.7,0.7-3.2,1.9-4.4c1.2-1.2,2.8-1.8,4.4-1.7c3.4,0.1,6.2,2.9,6.1,6.3l-0.1,5.7c0,1.1,0.5,2.1,1.5,2.7c0.9,0.5,2.1,0.5,3,0
			C390.6,38.1,394.3,31.7,394.5,24.5z"/>
		<path class="st2" d="M386,14.4c0,0.2,0,0.3,0,0.5c0,2-1.7,3.7-3.7,3.6c-0.2,0-0.3,0-0.5,0c-0.3-0.5-0.5-1.1-0.5-1.7
			c0-0.8,0.3-1.5,0.9-2.1c0.6-0.6,1.3-0.9,2.1-0.8C384.9,13.8,385.5,14,386,14.4z M385,15c0-0.4-0.3-0.7-0.7-0.7
			c-0.7,0-1.3,0.2-1.8,0.7s-0.8,1.1-0.8,1.8c0,0.4,0.3,0.7,0.7,0.7c0.4,0,0.7-0.3,0.7-0.7c0-0.3,0.1-0.6,0.4-0.8s0.5-0.3,0.8-0.3
			c0.2,0,0.4-0.1,0.5-0.2C384.9,15.3,385,15.2,385,15z"/>
		<path class="st0" d="M374.4,3.7c11.3,0.2,20.3,9.6,20.1,20.9c-0.1,7.2-3.9,13.6-10,17.3c-0.9,0.6-2.1,0.6-3,0
			c-1-0.6-1.5-1.5-1.5-2.7l0.1-5.7c0.1-3.4-2.7-6.3-6.1-6.3c-1.7,0-3.2,0.6-4.4,1.7c-1.2,1.2-1.9,2.7-1.9,4.4l-0.1,5.7
			c0,1.1-0.6,2.1-1.6,2.6c-1,0.5-2.1,0.5-3-0.1c-6-3.9-9.5-10.5-9.4-17.6c0.1-5.4,2.3-10.5,6.3-14.3c0,0,0,0,0,0
			C363.7,5.6,368.9,3.6,374.4,3.7z M388.6,16.9c0-2.4-1.9-4.4-4.3-4.5c-1.2,0-2.3,0.4-3.1,1.2c-0.8,0.8-1.3,1.9-1.3,3.1
			c0,2.4,1.9,4.4,4.3,4.5c1.2,0,2.3-0.4,3.1-1.2C388.1,19.1,388.6,18,388.6,16.9z M377.7,10.8c0-2.4-1.9-4.4-4.3-4.5
			c-1.2,0-2.3,0.4-3.1,1.2c-0.8,0.8-1.3,1.9-1.3,3.1c0,2.4,1.9,4.4,4.3,4.5c1.2,0,2.3-0.4,3.1-1.2C377.2,13.1,377.6,12,377.7,10.8z
			 M391,28.6c0-2.4-1.9-4.4-4.3-4.5c-1.2,0-2.3,0.4-3.1,1.2c-0.8,0.8-1.3,1.9-1.3,3.1c0,2.4,1.9,4.4,4.3,4.5c1.2,0,2.3-0.4,3.1-1.2
			C390.5,30.9,391,29.8,391,28.6z M376.7,21.4c0-2-1.5-3.6-3.5-3.7c-1,0-1.9,0.3-2.6,1c-0.7,0.7-1.1,1.6-1.1,2.5
			c0,2,1.5,3.6,3.5,3.7c1,0,1.9-0.3,2.6-1C376.3,23.3,376.7,22.4,376.7,21.4z M366.5,16.5c0-2.4-1.9-4.4-4.3-4.5
			c-1.2,0-2.3,0.4-3.1,1.2c-0.8,0.8-1.3,1.9-1.3,3.1c0,2.4,1.9,4.4,4.3,4.5c1.2,0,2.3-0.4,3.1-1.2C366,18.7,366.5,17.6,366.5,16.5z
			 M365.6,28.8c0-2.4-1.9-4.4-4.3-4.5c-1.2,0-2.3,0.4-3.1,1.2c-0.8,0.8-1.3,1.9-1.3,3.1c0,2.4,1.9,4.4,4.3,4.5
			c1.2,0,2.3-0.4,3.1-1.2C365.1,31.1,365.6,30,365.6,28.8z"/>
		<path d="M387.9,17.6c0-0.1,0-0.2,0-0.3C387.9,17.4,387.9,17.5,387.9,17.6z"/>
		<path class="st3" d="M384.3,14.3c0.4,0,0.7,0.3,0.7,0.7c0,0.2-0.1,0.4-0.2,0.5c-0.1,0.1-0.3,0.2-0.5,0.2c-0.3,0-0.6,0.1-0.8,0.3
			s-0.3,0.5-0.4,0.8c0,0.4-0.3,0.7-0.7,0.7c-0.4,0-0.7-0.3-0.7-0.7c0-0.7,0.3-1.3,0.8-1.8S383.6,14.3,384.3,14.3z"/>
		<path d="M387.8,18c0-0.1,0.1-0.2,0.1-0.3C387.8,17.8,387.8,17.9,387.8,18z"/>
		<path d="M387.7,18.2c0-0.1,0.1-0.2,0.1-0.3C387.7,18,387.7,18.1,387.7,18.2z"/>
		<path d="M387.5,18.5c0.1-0.1,0.1-0.2,0.2-0.3C387.6,18.3,387.6,18.4,387.5,18.5z"/>
		<path d="M385.9,20.1c0.7-0.3,1.3-0.9,1.6-1.6C387.1,19.2,386.6,19.8,385.9,20.1z"/>
		<path d="M375.7,8c0.8,0.7,1.3,1.7,1.2,2.8c0,2-1.7,3.7-3.7,3.6c-0.2,0-0.5,0-0.7-0.1c-0.1,0-0.1,0-0.2,0c-0.3-0.1-0.5-0.2-0.8-0.3
			c0,0,0,0-0.1,0c0,0,0,0,0,0c-0.4-0.2-0.8-0.5-1-0.9c0,0,0,0,0,0c-0.1-0.2-0.3-0.4-0.4-0.6c0-0.1-0.1-0.2-0.1-0.2c0,0,0-0.1,0-0.1
			c0.3,0.1,0.6,0.2,0.9,0.3c0.5,0.8,1.4,1.3,2.4,1.3c0.8,0,1.6-0.3,2.1-0.8c0.6-0.6,0.9-1.3,0.9-2.1c0-1-0.5-1.9-1.2-2.5
			c0-0.3-0.1-0.6-0.2-0.9c0.1,0,0.1,0.1,0.2,0.1c0,0,0.1,0,0.1,0.1c0.1,0.1,0.3,0.2,0.4,0.3c0,0,0.1,0.1,0.1,0.1c0,0,0,0,0,0
			C375.7,7.9,375.7,7.9,375.7,8z"/>
		<path d="M375.6,7.9c0,0,0.1,0.1,0.1,0.1C375.7,7.9,375.7,7.9,375.6,7.9z"/>
		<path d="M375.5,7.8c0,0,0.1,0.1,0.1,0.1C375.6,7.8,375.5,7.8,375.5,7.8z"/>
		<path d="M375.1,7.5c0,0-0.1,0-0.1-0.1C375,7.5,375.1,7.5,375.1,7.5z"/>
		<path d="M373.4,6.4c2.4,0,4.3,2,4.3,4.5c0,1.2-0.5,2.3-1.3,3.1c-0.8,0.8-1.9,1.2-3.1,1.2c-2.4,0-4.3-2-4.3-4.5
			c0-1.2,0.5-2.3,1.3-3.1C371.1,6.8,372.2,6.3,373.4,6.4z M377,10.8c0-1.1-0.5-2.1-1.2-2.8c0,0-0.1-0.1-0.1-0.1c0,0,0,0,0,0
			c0,0-0.1-0.1-0.1-0.1c-0.1-0.1-0.3-0.2-0.4-0.3c0,0-0.1,0-0.1-0.1c-0.1,0-0.1-0.1-0.2-0.1c-0.4-0.2-0.9-0.3-1.4-0.3
			c-2,0-3.7,1.6-3.7,3.6c0,0.5,0.1,1.1,0.3,1.5c0,0.1,0.1,0.2,0.1,0.2c0.1,0.2,0.2,0.4,0.4,0.6c0,0,0,0,0,0c0.3,0.4,0.6,0.7,1,0.9
			c0,0,0,0,0,0c0,0,0,0,0.1,0c0.2,0.1,0.5,0.2,0.8,0.3c0.1,0,0.1,0,0.2,0c0.2,0,0.5,0.1,0.7,0.1C375.3,14.5,376.9,12.8,377,10.8z"/>
		<path d="M374.8,7.4c0.1,0.3,0.2,0.6,0.2,0.9c-0.5-0.3-1.1-0.6-1.7-0.6c-0.8,0-1.6,0.3-2.1,0.8c-0.6,0.6-0.9,1.3-0.9,2.1
			c0,0.6,0.2,1.2,0.5,1.7c-0.3-0.1-0.6-0.1-0.9-0.3c0,0,0,0.1,0,0.1c-0.2-0.5-0.3-1-0.3-1.5c0-2,1.7-3.7,3.7-3.6
			C373.9,7.1,374.4,7.2,374.8,7.4z"/>
		<path class="st4" d="M375,8.3c0.8,0.6,1.3,1.5,1.2,2.5c0,0.8-0.3,1.5-0.9,2.1c-0.6,0.6-1.3,0.9-2.1,0.8c-1,0-1.9-0.5-2.4-1.3
			c0.2,0,0.3,0,0.5,0c2,0,3.7-1.6,3.7-3.6C375.1,8.7,375.1,8.5,375,8.3z"/>
		<path class="st5" d="M375,8.3c0,0.2,0,0.3,0,0.5c0,2-1.7,3.7-3.7,3.6c-0.2,0-0.3,0-0.5,0c-0.3-0.5-0.5-1.1-0.5-1.7
			c0-0.8,0.3-1.5,0.9-2.1c0.6-0.6,1.3-0.9,2.1-0.8C374,7.8,374.6,8,375,8.3z M374,8.9c0-0.4-0.3-0.7-0.7-0.7c-0.7,0-1.3,0.2-1.8,0.7
			s-0.8,1.1-0.8,1.8c0,0.4,0.3,0.7,0.7,0.7c0.4,0,0.7-0.3,0.7-0.7c0-0.3,0.1-0.6,0.4-0.8c0.2-0.2,0.5-0.3,0.8-0.3
			c0.2,0,0.4-0.1,0.5-0.2C373.9,9.3,374,9.1,374,8.9z"/>
		<path d="M385.5,20.3c0.1,0,0.2-0.1,0.3-0.1C385.8,20.2,385.7,20.2,385.5,20.3z"/>
		<path d="M385.3,20.3c0.1,0,0.2-0.1,0.3-0.1C385.5,20.3,385.4,20.3,385.3,20.3z"/>
		<path class="st3" d="M373.4,8.2c0.4,0,0.7,0.3,0.7,0.7c0,0.2-0.1,0.4-0.2,0.5c-0.1,0.1-0.3,0.2-0.5,0.2c-0.3,0-0.6,0.1-0.8,0.3
			c-0.2,0.2-0.3,0.5-0.4,0.8c0,0.4-0.3,0.7-0.7,0.7c-0.4,0-0.7-0.3-0.7-0.7c0-0.7,0.3-1.3,0.8-1.8S372.7,8.2,373.4,8.2z"/>
		<path d="M385,20.4c0.1,0,0.2,0,0.3-0.1C385.2,20.4,385.1,20.4,385,20.4z"/>
		<path d="M384.7,20.5c0.1,0,0.2,0,0.3,0C384.8,20.4,384.8,20.5,384.7,20.5z"/>
		<path d="M389.1,25.8c0.8,0.7,1.3,1.7,1.2,2.8c0,2-1.7,3.7-3.7,3.6c-0.1,0-0.2,0-0.3,0c-0.1,0-0.1,0-0.2,0c-0.1,0-0.2,0-0.3-0.1
			c-0.1,0-0.3-0.1-0.4-0.1c-0.1,0-0.1,0-0.2-0.1c0,0-0.1,0-0.1,0c-0.1,0-0.1,0-0.2-0.1c-0.5-0.2-0.9-0.6-1.2-0.9
			c0,0-0.1-0.1-0.1-0.1c0,0,0,0,0,0c0,0-0.1-0.1-0.1-0.1c-0.1-0.1-0.1-0.2-0.2-0.3c0,0,0-0.1,0-0.1c0,0,0,0,0-0.1c0,0,0,0,0-0.1
			c0-0.1-0.1-0.1-0.1-0.2c0.3,0.1,0.6,0.2,0.9,0.3c0.5,0.8,1.4,1.3,2.4,1.3c0.8,0,1.6-0.3,2.1-0.8c0.6-0.6,0.9-1.3,0.9-2.1
			c0-1-0.5-1.9-1.2-2.5c0-0.3-0.1-0.6-0.2-0.9c0,0,0,0,0.1,0c0,0,0.1,0,0.1,0c0,0,0,0,0,0c0,0,0,0,0.1,0c0,0,0,0,0.1,0
			c0,0,0.1,0,0.1,0c0.1,0.1,0.2,0.1,0.3,0.2c0,0,0.1,0.1,0.1,0.1c0,0,0,0,0,0C389,25.7,389.1,25.8,389.1,25.8z"/>
		<path d="M389,25.7c0,0,0.1,0.1,0.1,0.1C389.1,25.8,389,25.7,389,25.7z"/>
		<path d="M388.8,25.6c0,0,0.1,0.1,0.1,0.1C388.9,25.7,388.9,25.6,388.8,25.6z"/>
		<path d="M388.5,25.4C388.5,25.4,388.5,25.4,388.5,25.4C388.5,25.4,388.5,25.4,388.5,25.4z"/>
		<path d="M388.4,25.3C388.4,25.3,388.4,25.3,388.4,25.3C388.4,25.3,388.4,25.3,388.4,25.3z"/>
		<path d="M388.3,25.3C388.3,25.3,388.3,25.3,388.3,25.3C388.3,25.3,388.3,25.3,388.3,25.3z"/>
		<path d="M388.2,25.2L388.2,25.2c0.1,0.3,0.2,0.6,0.2,0.9c-0.5-0.3-1.1-0.6-1.7-0.6c-0.8,0-1.6,0.3-2.1,0.8
			c-0.6,0.6-0.9,1.3-0.9,2.1c0,0.6,0.2,1.2,0.5,1.7c-0.3-0.1-0.6-0.1-0.9-0.3c-0.2-0.4-0.3-0.9-0.3-1.5c0-2,1.7-3.7,3.7-3.6
			C387.2,24.9,387.7,25,388.2,25.2z"/>
		<path d="M383.3,20.4c0.1,0,0.1,0,0.2,0C383.4,20.4,383.4,20.4,383.3,20.4z"/>
		<path d="M386.7,24.2c2.4,0,4.3,2,4.3,4.5c0,1.2-0.5,2.3-1.3,3.1c-0.8,0.8-1.9,1.2-3.1,1.2c-2.4,0-4.3-2-4.3-4.5
			c0-1.2,0.5-2.3,1.3-3.1C384.5,24.6,385.6,24.2,386.7,24.2z M390.3,28.6c0-1.1-0.5-2.1-1.2-2.8c0,0-0.1-0.1-0.1-0.1c0,0,0,0,0,0
			c0,0-0.1-0.1-0.1-0.1c-0.1-0.1-0.2-0.1-0.3-0.2c0,0-0.1,0-0.1,0c0,0,0,0-0.1,0c0,0,0,0-0.1,0c0,0,0,0,0,0c0,0-0.1,0-0.1,0
			c0,0,0,0-0.1,0l0,0c-0.4-0.2-0.9-0.3-1.4-0.3c-2,0-3.7,1.6-3.7,3.6c0,0.5,0.1,1,0.3,1.5c0,0.1,0.1,0.1,0.1,0.2c0,0,0,0,0,0.1
			c0,0,0,0,0,0.1c0,0,0,0.1,0,0.1c0.1,0.1,0.1,0.2,0.2,0.3c0,0,0.1,0.1,0.1,0.1c0,0,0,0,0,0c0,0,0.1,0.1,0.1,0.1
			c0.3,0.4,0.7,0.7,1.2,0.9c0.1,0,0.1,0.1,0.2,0.1c0,0,0.1,0,0.1,0c0.1,0,0.1,0,0.2,0.1c0.1,0.1,0.3,0.1,0.4,0.1
			c0.1,0,0.2,0,0.3,0.1c0.1,0,0.1,0,0.2,0c0.1,0,0.2,0,0.3,0l0,0C388.6,32.3,390.3,30.7,390.3,28.6z"/>
		<path class="st6" d="M388.4,26.1c0.8,0.6,1.3,1.5,1.2,2.5c0,0.8-0.3,1.5-0.9,2.1c-0.6,0.6-1.3,0.9-2.1,0.8c-1,0-1.9-0.5-2.4-1.3
			c0.2,0,0.3,0,0.5,0c2,0,3.7-1.6,3.7-3.6C388.4,26.5,388.4,26.3,388.4,26.1z"/>
		<path d="M382.5,20C382.5,20,382.5,20,382.5,20C382.5,20,382.5,20,382.5,20z"/>
		<path d="M380.9,18.3c0,0.1,0.1,0.2,0.1,0.2C381,18.4,380.9,18.3,380.9,18.3z"/>
		<path d="M381.4,19.1c-0.1-0.2-0.3-0.4-0.4-0.6C381.1,18.7,381.2,18.9,381.4,19.1z"/>
		<path d="M381.4,19.1c0.3,0.4,0.6,0.7,1,0.9C382,19.8,381.7,19.5,381.4,19.1z"/>
		<path class="st7" d="M388.4,26.1c0,0.2,0,0.3,0,0.5c0,2-1.7,3.7-3.7,3.6c-0.2,0-0.3,0-0.5,0c-0.3-0.5-0.5-1.1-0.5-1.7
			c0-0.8,0.3-1.5,0.9-2.1c0.6-0.6,1.3-0.9,2.1-0.8C387.3,25.6,387.9,25.8,388.4,26.1z M387.4,26.7c0-0.4-0.3-0.7-0.7-0.7
			c-0.7,0-1.3,0.2-1.8,0.7c-0.5,0.5-0.8,1.1-0.8,1.8c0,0.4,0.3,0.7,0.7,0.7c0.4,0,0.7-0.3,0.7-0.7c0-0.3,0.1-0.6,0.4-0.8
			c0.2-0.2,0.5-0.3,0.8-0.3c0.2,0,0.4-0.1,0.5-0.2C387.3,27.1,387.4,26.9,387.4,26.7z"/>
		<path class="st3" d="M386.7,26c0.4,0,0.7,0.3,0.7,0.7c0,0.2-0.1,0.4-0.2,0.5c-0.1,0.1-0.3,0.2-0.5,0.2c-0.3,0-0.6,0.1-0.8,0.3
			c-0.2,0.2-0.3,0.5-0.4,0.8c0,0.4-0.3,0.7-0.7,0.7c-0.4,0-0.7-0.3-0.7-0.7c0-0.7,0.3-1.3,0.8-1.8C385.4,26.3,386,26,386.7,26z"/>
		<path d="M372.3,14.3c0.1,0,0.1,0,0.2,0C372.5,14.3,372.4,14.3,372.3,14.3z"/>
		<path d="M371.5,14C371.5,14,371.5,14,371.5,14C371.5,14,371.5,14,371.5,14z"/>
		<path d="M369.9,12.2c0,0.1,0.1,0.2,0.1,0.2C370,12.4,370,12.3,369.9,12.2z"/>
		<path d="M370.4,13c-0.1-0.2-0.3-0.4-0.4-0.6C370.1,12.6,370.3,12.8,370.4,13z"/>
		<path d="M370.4,13c0.3,0.4,0.6,0.7,1,0.9C371.1,13.7,370.7,13.4,370.4,13z"/>
		<path d="M373.2,17.8c2,0,3.6,1.7,3.5,3.7c0,1-0.4,1.9-1.1,2.5c-0.7,0.7-1.6,1-2.6,1c-2,0-3.6-1.7-3.5-3.7c0-1,0.4-1.9,1.1-2.5
			C371.3,18.1,372.2,17.7,373.2,17.8z M376,21.4c0-1.6-1.2-2.9-2.8-2.9c-1.6,0-2.9,1.2-2.9,2.8c0,1.6,1.2,2.9,2.8,2.9
			C374.7,24.3,376,23,376,21.4z"/>
		<path d="M373.2,18.4c1.6,0,2.9,1.3,2.8,2.9c0,1.6-1.3,2.9-2.9,2.8c-1.6,0-2.9-1.3-2.8-2.9C370.2,19.7,371.6,18.4,373.2,18.4z
			 M375.3,21.4c0-1.2-1-2.2-2.2-2.2c-0.6,0-1.1,0.2-1.6,0.6s-0.7,1-0.7,1.5c0,1.2,1,2.2,2.2,2.2c0.6,0,1.1-0.2,1.6-0.6
			S375.3,22,375.3,21.4z"/>
		<path d="M386.6,32.2L386.6,32.2c-0.1,0-0.2,0-0.3,0C386.4,32.2,386.5,32.2,386.6,32.2z"/>
		<path d="M386.1,32.2c0.1,0,0.1,0,0.2,0C386.2,32.2,386.2,32.2,386.1,32.2z"/>
		<path d="M385.8,32.2c0.1,0,0.2,0,0.3,0.1C386,32.2,385.9,32.2,385.8,32.2z"/>
		<path d="M385.2,32c0.1,0,0.1,0,0.2,0.1C385.4,32,385.3,32,385.2,32z"/>
		<path d="M385,31.9c0.1,0,0.1,0.1,0.2,0.1C385.1,31.9,385,31.9,385,31.9z"/>
		<path d="M383.3,30.1C383.3,30.2,383.3,30.2,383.3,30.1C383.3,30.2,383.3,30.2,383.3,30.1z"/>
		<path d="M383.4,30.3C383.4,30.3,383.4,30.3,383.4,30.3C383.4,30.3,383.4,30.3,383.4,30.3z"/>
		<path d="M383.7,30.8c0,0-0.1-0.1-0.1-0.1C383.6,30.7,383.7,30.7,383.7,30.8z"/>
		<path d="M383.7,30.8c0,0,0.1,0.1,0.1,0.1C383.8,30.9,383.7,30.8,383.7,30.8z"/>
		<path d="M364.6,13.6c0.8,0.7,1.3,1.7,1.2,2.8c0,2-1.7,3.7-3.7,3.6c-1.1,0-2.1-0.5-2.8-1.3c0,0-0.1-0.1-0.1-0.1c0,0,0,0,0,0
			c0-0.1-0.1-0.1-0.1-0.2c0,0,0,0,0-0.1c0,0,0-0.1-0.1-0.1c0,0-0.1-0.1-0.1-0.1c0,0,0,0,0,0c0-0.1-0.1-0.2-0.1-0.2c0,0,0,0,0-0.1
			c0,0,0,0,0,0c0.3,0.1,0.6,0.2,0.9,0.3c0.5,0.8,1.4,1.3,2.4,1.3c0.8,0,1.6-0.3,2.1-0.8c0.6-0.6,0.9-1.3,0.9-2.1
			c0-1-0.5-1.9-1.2-2.5c0-0.3-0.1-0.6-0.2-0.9c0,0,0,0,0,0c0,0,0,0,0.1,0c0.1,0,0.2,0.1,0.2,0.1c0,0,0,0,0,0c0,0,0.1,0.1,0.1,0.1
			c0,0,0.1,0,0.1,0.1c0,0,0,0,0.1,0c0.1,0,0.1,0.1,0.2,0.1c0,0,0,0,0,0C364.5,13.6,364.5,13.6,364.6,13.6z"/>
		<path d="M364.5,13.5c0,0,0.1,0.1,0.1,0.1C364.5,13.6,364.5,13.6,364.5,13.5z"/>
		<path d="M364.2,13.4c0.1,0,0.1,0.1,0.2,0.1C364.4,13.5,364.3,13.4,364.2,13.4z"/>
		<path d="M364.2,13.4C364.2,13.4,364.2,13.3,364.2,13.4C364.2,13.3,364.2,13.4,364.2,13.4z"/>
		<path d="M364.1,13.3c0,0-0.1-0.1-0.1-0.1C364,13.2,364,13.2,364.1,13.3z"/>
		<path d="M363.9,13.2c-0.1,0-0.1-0.1-0.2-0.1C363.8,13.1,363.9,13.1,363.9,13.2z"/>
		<path d="M363.7,13.1C363.7,13.1,363.7,13,363.7,13.1C363.7,13,363.7,13.1,363.7,13.1z"/>
		<path d="M362.2,12c2.4,0,4.3,2,4.3,4.5c0,1.2-0.5,2.3-1.3,3.1c-0.8,0.8-1.9,1.2-3.1,1.2c-2.4,0-4.3-2-4.3-4.5
			c0-1.2,0.5-2.3,1.3-3.1C359.9,12.4,361,12,362.2,12z M365.8,16.5c0-1.1-0.5-2.1-1.2-2.8c0,0-0.1-0.1-0.1-0.1c0,0,0,0,0,0
			c-0.1-0.1-0.1-0.1-0.2-0.1c0,0,0,0-0.1,0c0,0-0.1,0-0.1-0.1c0,0-0.1-0.1-0.1-0.1c0,0,0,0,0,0c-0.1,0-0.1-0.1-0.2-0.1
			c0,0,0,0-0.1,0c0,0,0,0,0,0c-0.4-0.2-0.9-0.3-1.4-0.3c-2,0-3.7,1.6-3.7,3.6c0,0.5,0.1,1,0.3,1.5c0,0,0,0,0,0c0,0,0,0,0,0.1
			c0,0.1,0.1,0.2,0.1,0.2c0,0,0,0,0,0c0,0,0.1,0.1,0.1,0.1c0,0,0,0.1,0.1,0.1c0,0,0,0,0,0.1c0,0.1,0.1,0.1,0.1,0.2c0,0,0,0,0,0
			c0,0,0.1,0.1,0.1,0.1c0.7,0.8,1.7,1.3,2.8,1.3C364.1,20.1,365.8,18.5,365.8,16.5z"/>
		<path d="M363.6,13c0.1,0.3,0.2,0.6,0.2,0.9c-0.5-0.3-1.1-0.6-1.7-0.6c-0.8,0-1.6,0.3-2.1,0.8s-0.9,1.3-0.9,2.1
			c0,0.6,0.2,1.2,0.5,1.7c-0.3-0.1-0.6-0.1-0.9-0.3c-0.2-0.4-0.3-0.9-0.3-1.5c0-2,1.7-3.7,3.7-3.6C362.7,12.7,363.2,12.8,363.6,13z"
			/>
		<path class="st8" d="M363.9,14c0.8,0.6,1.3,1.5,1.2,2.5c0,0.8-0.3,1.5-0.9,2.1c-0.6,0.6-1.3,0.9-2.1,0.8c-1,0-1.9-0.5-2.4-1.3
			c0.2,0,0.3,0,0.5,0c2,0,3.7-1.6,3.7-3.6C363.9,14.3,363.9,14.1,363.9,14z"/>
		<path class="st9" d="M363.9,14c0,0.2,0,0.3,0,0.5c0,2-1.7,3.7-3.7,3.6c-0.2,0-0.3,0-0.5,0c-0.3-0.5-0.5-1.1-0.5-1.7
			c0-0.8,0.3-1.5,0.9-2.1s1.3-0.9,2.1-0.8C362.8,13.4,363.4,13.6,363.9,14z M362.9,14.6c0-0.4-0.3-0.7-0.7-0.7
			c-0.7,0-1.3,0.2-1.8,0.7s-0.8,1.1-0.8,1.8c0,0.4,0.3,0.7,0.7,0.7c0.4,0,0.7-0.3,0.7-0.7c0-0.3,0.1-0.6,0.4-0.8
			c0.2-0.2,0.5-0.3,0.8-0.3c0.2,0,0.4-0.1,0.5-0.2C362.8,14.9,362.9,14.8,362.9,14.6z"/>
		<path class="st3" d="M362.2,13.9c0.4,0,0.7,0.3,0.7,0.7c0,0.2-0.1,0.4-0.2,0.5c-0.1,0.1-0.3,0.2-0.5,0.2c-0.3,0-0.6,0.1-0.8,0.3
			c-0.2,0.2-0.3,0.5-0.4,0.8c0,0.4-0.3,0.7-0.7,0.7c-0.4,0-0.7-0.3-0.7-0.7c0-0.7,0.3-1.3,0.8-1.8S361.5,13.9,362.2,13.9z"/>
		<path d="M358.7,17.8C358.7,17.8,358.7,17.8,358.7,17.8C358.7,17.8,358.7,17.8,358.7,17.8z"/>
		<path d="M358.9,18.1c0-0.1-0.1-0.2-0.1-0.2C358.8,17.9,358.8,18,358.9,18.1z"/>
		<path d="M358.9,18.2c0,0-0.1-0.1-0.1-0.1C358.9,18.1,358.9,18.2,358.9,18.2z"/>
		<path d="M359,18.3C359,18.4,359,18.4,359,18.3C359,18.4,359,18.4,359,18.3z"/>
		<path d="M359.2,18.6c0-0.1-0.1-0.1-0.1-0.2C359.1,18.5,359.1,18.5,359.2,18.6z"/>
		<path d="M359.2,18.6C359.2,18.7,359.2,18.7,359.2,18.6C359.3,18.7,359.2,18.7,359.2,18.6z"/>
		<path d="M363.7,26c0.8,0.7,1.3,1.7,1.2,2.8c0,2-1.7,3.7-3.7,3.6c-0.4,0-0.9-0.1-1.3-0.2c-0.1,0-0.2-0.1-0.2-0.1l0,0
			c-0.1,0-0.1-0.1-0.2-0.1c-0.4-0.2-0.8-0.5-1.1-0.9c0,0,0,0,0,0c0,0,0,0-0.1-0.1c0,0-0.1-0.1-0.1-0.1c0-0.1-0.1-0.1-0.1-0.2
			c0,0,0,0,0-0.1c0,0,0-0.1,0-0.1c0-0.1-0.1-0.1-0.1-0.2c0,0,0-0.1,0-0.1c0,0,0-0.1,0-0.1c0.3,0.1,0.6,0.2,0.9,0.3
			c0.5,0.8,1.4,1.3,2.4,1.3c0.8,0,1.6-0.3,2.1-0.8c0.6-0.6,0.9-1.3,0.9-2.1c0-1-0.5-1.9-1.2-2.5c0-0.3-0.1-0.6-0.2-0.9
			c0.1,0,0.1,0.1,0.2,0.1c0,0,0.1,0,0.1,0.1c0.1,0.1,0.3,0.2,0.4,0.3c0,0,0.1,0.1,0.1,0.1c0,0,0,0,0,0C363.6,25.9,363.7,26,363.7,26
			z"/>
		<path d="M363.6,25.9c0,0,0.1,0.1,0.1,0.1C363.7,26,363.6,25.9,363.6,25.9z"/>
		<path d="M363.4,25.8c0,0,0.1,0.1,0.1,0.1C363.5,25.9,363.5,25.8,363.4,25.8z"/>
		<path d="M363,25.5c0,0-0.1,0-0.1-0.1C363,25.5,363,25.5,363,25.5z"/>
		<path d="M361.3,24.4c2.4,0,4.3,2,4.3,4.5c0,1.2-0.5,2.3-1.3,3.1c-0.8,0.8-1.9,1.2-3.1,1.2c-2.4,0-4.3-2-4.3-4.5
			c0-1.2,0.5-2.3,1.3-3.1C359.1,24.8,360.2,24.4,361.3,24.4z M364.9,28.8c0-1.1-0.5-2.1-1.2-2.8c0,0-0.1-0.1-0.1-0.1c0,0,0,0,0,0
			c0,0-0.1-0.1-0.1-0.1c-0.1-0.1-0.3-0.2-0.4-0.3c0,0-0.1,0-0.1-0.1c-0.1,0-0.1-0.1-0.2-0.1c-0.4-0.2-0.9-0.3-1.4-0.3
			c-2,0-3.7,1.6-3.7,3.6c0,0.5,0.1,1.1,0.3,1.5c0,0,0,0.1,0,0.1c0,0.1,0.1,0.1,0.1,0.2c0,0,0,0.1,0,0.1c0,0,0,0,0,0.1
			c0,0.1,0.1,0.2,0.1,0.2c0,0,0.1,0.1,0.1,0.1c0,0,0,0,0.1,0.1c0,0,0,0,0,0c0.3,0.4,0.7,0.7,1.1,0.9c0.1,0,0.1,0.1,0.2,0.1l0,0
			c0.1,0,0.2,0.1,0.2,0.1c0.4,0.2,0.8,0.2,1.3,0.2C363.2,32.5,364.9,30.9,364.9,28.8z"/>
		<path d="M362.8,25.4c0.1,0.3,0.2,0.6,0.2,0.9c-0.5-0.3-1.1-0.6-1.7-0.6c-0.8,0-1.6,0.3-2.1,0.8c-0.6,0.6-0.9,1.3-0.9,2.1
			c0,0.6,0.2,1.2,0.5,1.7c-0.3-0.1-0.6-0.1-0.9-0.3c0,0,0,0.1,0,0.1c-0.2-0.5-0.3-1-0.3-1.5c0-2,1.7-3.7,3.7-3.6
			C361.8,25.1,362.3,25.2,362.8,25.4z"/>
		<path class="st10" d="M363,26.3c0.8,0.6,1.3,1.5,1.2,2.5c0,0.8-0.3,1.5-0.9,2.1c-0.6,0.6-1.3,0.9-2.1,0.8c-1,0-1.9-0.5-2.4-1.3
			c0.2,0,0.3,0,0.5,0c2,0,3.7-1.6,3.7-3.6C363,26.7,363,26.5,363,26.3z"/>
		<path class="st11" d="M363,26.3c0,0.2,0,0.3,0,0.5c0,2-1.7,3.7-3.7,3.6c-0.2,0-0.3,0-0.5,0c-0.3-0.5-0.5-1.1-0.5-1.7
			c0-0.8,0.3-1.5,0.9-2.1c0.6-0.6,1.3-0.9,2.1-0.8C361.9,25.8,362.5,26,363,26.3z M362,26.9c0-0.4-0.3-0.7-0.7-0.7
			c-0.7,0-1.3,0.2-1.8,0.7c-0.5,0.5-0.8,1.1-0.8,1.8c0,0.4,0.3,0.7,0.7,0.7c0.4,0,0.7-0.3,0.7-0.7c0-0.3,0.1-0.6,0.4-0.8
			c0.2-0.2,0.5-0.3,0.8-0.3c0.2,0,0.4-0.1,0.5-0.2C361.9,27.3,362,27.1,362,26.9z"/>
		<path class="st3" d="M361.3,26.2c0.4,0,0.7,0.3,0.7,0.7c0,0.2-0.1,0.4-0.2,0.5c-0.1,0.1-0.3,0.2-0.5,0.2c-0.3,0-0.6,0.1-0.8,0.3
			c-0.2,0.2-0.3,0.5-0.4,0.8c0,0.4-0.3,0.7-0.7,0.7c-0.4,0-0.7-0.3-0.7-0.7c0-0.7,0.3-1.3,0.8-1.8C360,26.5,360.6,26.2,361.3,26.2z"
			/>
		<path d="M359.7,32.1c0.1,0,0.2,0.1,0.2,0.1C359.8,32.2,359.8,32.1,359.7,32.1z"/>
		<path d="M357.9,30.2C357.9,30.2,357.9,30.3,357.9,30.2C357.9,30.3,357.9,30.2,357.9,30.2z"/>
		<path d="M359.5,32c0.1,0,0.1,0.1,0.2,0.1C359.6,32.1,359.6,32,359.5,32z"/>
		<path d="M357.9,30.3c0,0.1,0.1,0.1,0.1,0.2C358,30.4,357.9,30.3,357.9,30.3z"/>
		<path d="M358,30.5C358,30.6,358.1,30.6,358,30.5C358.1,30.6,358,30.6,358,30.5z"/>
		<path d="M358.3,31c0,0-0.1-0.1-0.1-0.1C358.2,30.9,358.3,30.9,358.3,31z"/>
		<path d="M358.4,31C358.4,31.1,358.4,31.1,358.4,31C358.4,31.1,358.4,31.1,358.4,31z"/>
	</g>
	<g>
	</g>
</g>
</svg>
