<?xml version="1.0" encoding="utf-8"?>
<!-- Generator: Adobe Illustrator 24.0.1, SVG Export Plug-In . SVG Version: 6.00 Build 0)  -->
<svg version="1.1" id="Capa_1" xmlns="http://www.w3.org/2000/svg" xmlns:xlink="http://www.w3.org/1999/xlink" x="0px" y="0px"
	 viewBox="0 0 84.6 46.5" style="enable-background:new 0 0 84.6 46.5;" xml:space="preserve">
<style type="text/css">
	.st0{fill:#1D1D1B;}
	.st1{fill:#87A1FF;}
	.st2{fill:#9CC4FF;}
	.st3{fill:#FFFFFF;}
	.st4{fill:#697900;}
	.st5{fill:#859300;}
	.st6{fill:#B6006F;}
	.st7{fill:#EF0083;}
	.st8{fill:#CC0000;}
	.st9{fill:#FF5200;}
	.st10{fill:#FFA800;}
	.st11{fill:#FFC02C;}
</style>
<path class="st0" d="M3.8,24c0,12.1,9.1,20.4,20.2,20.4c4,0,6.5-1.2,9.7-2.6c0-2,0-10.3,0-10.3c-2.6,1.7-5.3,3.2-9.1,3.2
	c-6.1,0-10.7-4.2-10.7-10.5c0-6.7,3.6-11.6,10.2-11.6c4.8,0,7.3,1.5,9.7,3.4c0-4.6,0-10.7,0-10.7c-3.6-2-6.1-2.5-10.2-2.5
	C12.3,2.8,3.8,11.4,3.8,24z"/>
<g>
	<path d="M61.1,2.3C66.9,2.4,72.4,4.8,76.4,9s6.2,9.7,6.1,15.6c-0.1,3.8-1.1,7.5-3.1,10.8c-1,1.7-2.2,3.2-3.6,4.6
		c-1.2,1.2-2.6,2.2-4,3.1c-1.4,0.8-3,0.8-4.4,0s-2.2-2.3-2.2-3.9l0.1-5.7c0-2.7-2.1-4.9-4.7-4.9c-1.3,0-2.5,0.5-3.4,1.4
		s-1.5,2.1-1.5,3.4l-0.1,5.7c0,1.6-0.9,3-2.3,3.8s-3.1,0.7-4.4-0.2c-3.1-2-5.6-4.7-7.4-7.9c-1.8-3.3-2.7-7.1-2.7-10.9
		c0.1-5.8,2.5-11.3,6.7-15.3l0,0C49.7,4.3,55.3,2.2,61.1,2.3z M81.9,24.5c0.2-11.7-9.1-21.3-20.8-21.6C49.4,2.7,39.7,12,39.5,23.7
		c-0.1,7.6,3.7,14.4,9.7,18.2c2.4,1.6,5.6-0.1,5.7-3l0.1-5.7c0.1-3.1,2.6-5.5,5.6-5.4c1.5,0,2.9,0.7,3.9,1.7s1.6,2.4,1.5,3.9
		l-0.1,5.7c-0.1,2.9,3.1,4.7,5.5,3.3C77.6,38.8,81.7,32.2,81.9,24.5z"/>
	<path d="M73.4,14c0.8,0.7,1.3,1.7,1.2,2.8c0,0.2,0,0.3,0,0.5c0,0.1,0,0.2,0,0.3v0.1c0,0.1,0,0.2-0.1,0.3c0,0.1-0.1,0.2-0.1,0.3
		c0,0.1-0.1,0.2-0.2,0.3c-0.4,0.7-0.9,1.2-1.6,1.6c-0.1,0.1-0.2,0.1-0.3,0.1c-0.1,0-0.2,0.1-0.3,0.1c-0.1,0-0.2,0-0.3,0.1h-0.1
		c-0.1,0-0.2,0-0.3,0c-0.2,0-0.3,0-0.5,0s-0.5,0-0.7-0.1c-0.1,0-0.1,0-0.2,0c-0.3-0.1-0.5-0.2-0.8-0.3c0,0,0,0-0.1,0l0,0
		c-0.4-0.2-0.8-0.5-1-0.9l0,0c-0.1-0.2-0.3-0.4-0.4-0.6c0-0.1-0.1-0.2-0.1-0.2v-0.1c0.3,0.1,0.6,0.2,0.9,0.3
		c0.5,0.8,1.4,1.3,2.4,1.3c0.8,0,1.6-0.3,2.1-0.8s0.9-1.3,0.9-2.1c0-1-0.5-1.9-1.2-2.5c0-0.3-0.1-0.6-0.2-0.9l0,0c0,0,0,0,0.1,0
		s0.2,0.1,0.2,0.1l0,0l0.1,0.1c0,0,0.1,0,0.1,0.1c0,0,0,0,0.1,0s0.1,0.1,0.2,0.1l0,0C73.3,14,73.4,14,73.4,14z"/>
	<path d="M73.3,13.9l0.1,0.1C73.4,14,73.3,14,73.3,13.9z"/>
	<path d="M73.1,13.8c0.1,0,0.1,0.1,0.2,0.1C73.2,13.9,73.1,13.8,73.1,13.8z"/>
	<path d="M73.1,13.8C73.1,13.8,73,13.8,73.1,13.8C73,13.8,73.1,13.8,73.1,13.8z"/>
	<path d="M72.9,13.7l-0.1-0.1C72.8,13.6,72.9,13.7,72.9,13.7z"/>
	<path d="M72.8,13.6c-0.1,0-0.1-0.1-0.2-0.1C72.6,13.5,72.7,13.6,72.8,13.6z"/>
	<path d="M72.5,13.5L72.5,13.5L72.5,13.5z"/>
	<path d="M71,12.4c2.4,0,4.3,2,4.3,4.5c0,1.2-0.5,2.3-1.3,3.1c-0.8,0.8-1.9,1.2-3.1,1.2c-2.4,0-4.3-2-4.3-4.5c0-1.2,0.5-2.3,1.3-3.1
		C68.8,12.8,69.9,12.4,71,12.4z M74.6,16.9c0-1.1-0.5-2.1-1.2-2.8L73.3,14l0,0c-0.1-0.1-0.1-0.1-0.2-0.1c0,0,0,0-0.1,0
		c0,0-0.1,0-0.1-0.1l-0.1-0.1l0,0c-0.1,0-0.1-0.1-0.2-0.1c0,0,0,0-0.1,0l0,0c-0.4-0.2-0.9-0.3-1.4-0.3c-2,0-3.7,1.6-3.7,3.6
		c0,0.5,0.1,1.1,0.3,1.5c0,0.1,0.1,0.2,0.1,0.2c0.1,0.2,0.2,0.4,0.4,0.6l0,0c0.3,0.4,0.6,0.7,1,0.9l0,0c0,0,0,0,0.1,0
		c0.2,0.1,0.5,0.2,0.8,0.3c0.1,0,0.1,0,0.2,0c0.2,0,0.5,0.1,0.7,0.1s0.3,0,0.5,0c0.1,0,0.2,0,0.3,0h0.1c0.1,0,0.2,0,0.3-0.1
		c0.1,0,0.2-0.1,0.3-0.1c0.1,0,0.2-0.1,0.3-0.1c0.7-0.3,1.3-0.9,1.6-1.6c0.1-0.1,0.1-0.2,0.2-0.3c0-0.1,0.1-0.2,0.1-0.3
		c0-0.1,0.1-0.2,0.1-0.3v-0.1c0-0.1,0-0.2,0-0.3C74.6,17.2,74.6,17,74.6,16.9z"/>
	<path d="M72.5,13.4c0.1,0.3,0.2,0.6,0.2,0.9c-0.5-0.3-1.1-0.6-1.7-0.6c-0.8,0-1.6,0.3-2.1,0.8c-0.6,0.6-0.9,1.3-0.9,2.1
		c0,0.6,0.2,1.2,0.5,1.7c-0.3-0.1-0.6-0.1-0.9-0.3v0.1c-0.2-0.5-0.3-1-0.3-1.5c0-2,1.7-3.7,3.7-3.6C71.5,13.1,72,13.2,72.5,13.4z"/>
	<path class="st1" d="M72.7,14.4c0.8,0.6,1.3,1.5,1.2,2.5c0,0.8-0.3,1.5-0.9,2.1s-1.3,0.9-2.1,0.8c-1,0-1.9-0.5-2.4-1.3
		c0.2,0,0.3,0,0.5,0c2,0,3.7-1.6,3.7-3.6C72.7,14.7,72.7,14.5,72.7,14.4z"/>
	<path d="M61.1,3c11.7,0.2,21,9.9,20.8,21.6c-0.1,7.6-4.3,14.2-10.4,17.8C69,43.9,65.9,42,66,39.1l0.1-5.7c0-1.5-0.6-2.9-1.5-3.9
		c-1-1-2.4-1.7-3.9-1.7c-3.1-0.1-5.6,2.4-5.6,5.4L55,38.9c-0.1,2.9-3.3,4.6-5.7,3c-6-3.8-9.8-10.6-9.7-18.2
		C39.7,12.1,49.4,2.7,61.1,3z M81.2,24.5c0.2-11.3-8.8-20.6-20.1-20.9c-5.5-0.1-10.6,1.9-14.6,5.7l0,0c-3.9,3.8-6.2,8.9-6.3,14.3
		c-0.1,7.1,3.4,13.7,9.4,17.6c0.9,0.6,2.1,0.6,3,0.1c1-0.5,1.6-1.5,1.6-2.6l0.1-5.7c0-1.7,0.7-3.2,1.9-4.4c1.2-1.2,2.8-1.8,4.4-1.7
		c3.4,0.1,6.2,2.9,6.1,6.3l-0.1,5.7c0,1.1,0.5,2.1,1.5,2.7c0.9,0.5,2.1,0.5,3,0C77.3,38.1,81,31.7,81.2,24.5z"/>
	<path class="st2" d="M72.7,14.4c0,0.2,0,0.3,0,0.5c0,2-1.7,3.7-3.7,3.6c-0.2,0-0.3,0-0.5,0C68.2,18,68,17.4,68,16.8
		c0-0.8,0.3-1.5,0.9-2.1s1.3-0.9,2.1-0.8C71.6,13.8,72.2,14,72.7,14.4z M71.7,15c0-0.4-0.3-0.7-0.7-0.7c-0.7,0-1.3,0.2-1.8,0.7
		s-0.8,1.1-0.8,1.8c0,0.4,0.3,0.7,0.7,0.7c0.4,0,0.7-0.3,0.7-0.7c0-0.3,0.1-0.6,0.4-0.8c0.3-0.2,0.5-0.3,0.8-0.3
		c0.2,0,0.4-0.1,0.5-0.2C71.6,15.3,71.7,15.2,71.7,15z"/>
	<path class="st0" d="M61.1,3.7c11.3,0.2,20.3,9.6,20.1,20.9c-0.1,7.2-3.9,13.6-10,17.3c-0.9,0.6-2.1,0.6-3,0
		c-1-0.6-1.5-1.5-1.5-2.7l0.1-5.7c0.1-3.4-2.7-6.3-6.1-6.3c-1.7,0-3.2,0.6-4.4,1.7c-1.2,1.2-1.9,2.7-1.9,4.4L54.3,39
		c0,1.1-0.6,2.1-1.6,2.6s-2.1,0.5-3-0.1c-6-3.9-9.5-10.5-9.4-17.6c0.1-5.4,2.3-10.5,6.3-14.3l0,0C50.4,5.6,55.6,3.6,61.1,3.7z
		 M75.3,16.9c0-2.4-1.9-4.4-4.3-4.5c-1.2,0-2.3,0.4-3.1,1.2c-0.8,0.8-1.3,1.9-1.3,3.1c0,2.4,1.9,4.4,4.3,4.5c1.2,0,2.3-0.4,3.1-1.2
		C74.8,19.1,75.3,18,75.3,16.9z M64.4,10.8c0-2.4-1.9-4.4-4.3-4.5c-1.2,0-2.3,0.4-3.1,1.2c-0.8,0.8-1.3,1.9-1.3,3.1
		c0,2.4,1.9,4.4,4.3,4.5c1.2,0,2.3-0.4,3.1-1.2C63.9,13.1,64.3,12,64.4,10.8z M77.7,28.6c0-2.4-1.9-4.4-4.3-4.5
		c-1.2,0-2.3,0.4-3.1,1.2c-0.8,0.8-1.3,1.9-1.3,3.1c0,2.4,1.9,4.4,4.3,4.5c1.2,0,2.3-0.4,3.1-1.2C77.2,30.9,77.7,29.8,77.7,28.6z
		 M63.4,21.4c0-2-1.5-3.6-3.5-3.7c-1,0-1.9,0.3-2.6,1s-1.1,1.6-1.1,2.5c0,2,1.5,3.6,3.5,3.7c1,0,1.9-0.3,2.6-1
		C63,23.3,63.4,22.4,63.4,21.4z M53.2,16.5c0-2.4-1.9-4.4-4.3-4.5c-1.2,0-2.3,0.4-3.1,1.2c-0.8,0.8-1.3,1.9-1.3,3.1
		c0,2.4,1.9,4.4,4.3,4.5c1.2,0,2.3-0.4,3.1-1.2C52.7,18.7,53.2,17.6,53.2,16.5z M52.3,28.8c0-2.4-1.9-4.4-4.3-4.5
		c-1.2,0-2.3,0.4-3.1,1.2c-0.8,0.8-1.3,1.9-1.3,3.1c0,2.4,1.9,4.4,4.3,4.5c1.2,0,2.3-0.4,3.1-1.2C51.8,31.1,52.3,30,52.3,28.8z"/>
	<path d="M74.6,17.6c0-0.1,0-0.2,0-0.3C74.6,17.4,74.6,17.5,74.6,17.6z"/>
	<path class="st3" d="M71,14.3c0.4,0,0.7,0.3,0.7,0.7c0,0.2-0.1,0.4-0.2,0.5s-0.3,0.2-0.5,0.2c-0.3,0-0.6,0.1-0.8,0.3
		s-0.3,0.5-0.4,0.8c0,0.4-0.3,0.7-0.7,0.7c-0.4,0-0.7-0.3-0.7-0.7c0-0.7,0.3-1.3,0.8-1.8S70.3,14.3,71,14.3z"/>
	<path d="M74.5,18c0-0.1,0.1-0.2,0.1-0.3C74.5,17.8,74.5,17.9,74.5,18z"/>
	<path d="M74.4,18.2c0-0.1,0.1-0.2,0.1-0.3C74.4,18,74.4,18.1,74.4,18.2z"/>
	<path d="M74.2,18.5c0.1-0.1,0.1-0.2,0.2-0.3C74.3,18.3,74.3,18.4,74.2,18.5z"/>
	<path d="M72.6,20.1c0.7-0.3,1.3-0.9,1.6-1.6C73.8,19.2,73.3,19.8,72.6,20.1z"/>
	<path d="M62.4,8c0.8,0.7,1.3,1.7,1.2,2.8c0,2-1.7,3.7-3.7,3.6c-0.2,0-0.5,0-0.7-0.1c-0.1,0-0.1,0-0.2,0c-0.3-0.1-0.5-0.2-0.8-0.3
		c0,0,0,0-0.1,0l0,0c-0.4-0.2-0.8-0.5-1-0.9l0,0c-0.1-0.2-0.3-0.4-0.4-0.6c0-0.1-0.1-0.2-0.1-0.2v-0.1c0.3,0.1,0.6,0.2,0.9,0.3
		c0.5,0.8,1.4,1.3,2.4,1.3c0.8,0,1.6-0.3,2.1-0.8c0.6-0.6,0.9-1.3,0.9-2.1c0-1-0.5-1.9-1.2-2.5c0-0.3-0.1-0.6-0.2-0.9
		c0.1,0,0.1,0.1,0.2,0.1c0,0,0.1,0,0.1,0.1c0.1,0.1,0.3,0.2,0.4,0.3l0.1,0.1l0,0C62.4,7.9,62.4,7.9,62.4,8z"/>
	<path d="M62.3,7.9L62.4,8C62.4,7.9,62.4,7.9,62.3,7.9z"/>
	<path d="M62.2,7.8l0.1,0.1C62.3,7.8,62.2,7.8,62.2,7.8z"/>
	<path d="M61.8,7.5c0,0-0.1,0-0.1-0.1C61.7,7.5,61.8,7.5,61.8,7.5z"/>
	<path d="M60.1,6.4c2.4,0,4.3,2,4.3,4.5c0,1.2-0.5,2.3-1.3,3.1s-1.9,1.2-3.1,1.2c-2.4,0-4.3-2-4.3-4.5c0-1.2,0.5-2.3,1.3-3.1
		C57.8,6.8,58.9,6.3,60.1,6.4z M63.7,10.8c0-1.1-0.5-2.1-1.2-2.8l-0.1-0.1l0,0l-0.1-0.1c-0.1-0.1-0.3-0.2-0.4-0.3c0,0-0.1,0-0.1-0.1
		c-0.1,0-0.1-0.1-0.2-0.1C61.2,7.1,60.7,7,60.2,7c-2,0-3.7,1.6-3.7,3.6c0,0.5,0.1,1.1,0.3,1.5c0,0.1,0.1,0.2,0.1,0.2
		c0.1,0.2,0.2,0.4,0.4,0.6l0,0c0.3,0.4,0.6,0.7,1,0.9l0,0c0,0,0,0,0.1,0c0.2,0.1,0.5,0.2,0.8,0.3c0.1,0,0.1,0,0.2,0
		c0.2,0,0.5,0.1,0.7,0.1C62,14.5,63.6,12.8,63.7,10.8z"/>
	<path d="M61.5,7.4c0.1,0.3,0.2,0.6,0.2,0.9C61.2,8,60.6,7.7,60,7.7c-0.8,0-1.6,0.3-2.1,0.8C57.3,9.1,57,9.8,57,10.6
		c0,0.6,0.2,1.2,0.5,1.7c-0.3-0.1-0.6-0.1-0.9-0.3v0.1c-0.2-0.5-0.3-1-0.3-1.5c0-2,1.7-3.7,3.7-3.6C60.6,7.1,61.1,7.2,61.5,7.4z"/>
	<path class="st4" d="M61.7,8.3c0.8,0.6,1.3,1.5,1.2,2.5c0,0.8-0.3,1.5-0.9,2.1c-0.6,0.6-1.3,0.9-2.1,0.8c-1,0-1.9-0.5-2.4-1.3
		c0.2,0,0.3,0,0.5,0c2,0,3.7-1.6,3.7-3.6C61.8,8.7,61.8,8.5,61.7,8.3z"/>
	<path class="st5" d="M61.7,8.3c0,0.2,0,0.3,0,0.5c0,2-1.7,3.7-3.7,3.6c-0.2,0-0.3,0-0.5,0c-0.3-0.5-0.5-1.1-0.5-1.7
		c0-0.8,0.3-1.5,0.9-2.1C58.5,8,59.2,7.7,60,7.8C60.7,7.8,61.3,8,61.7,8.3z M60.7,8.9c0-0.4-0.3-0.7-0.7-0.7c-0.7,0-1.3,0.2-1.8,0.7
		s-0.8,1.1-0.8,1.8c0,0.4,0.3,0.7,0.7,0.7c0.4,0,0.7-0.3,0.7-0.7c0-0.3,0.1-0.6,0.4-0.8c0.2-0.2,0.5-0.3,0.8-0.3
		c0.2,0,0.4-0.1,0.5-0.2C60.6,9.3,60.7,9.1,60.7,8.9z"/>
	<path d="M72.2,20.3c0.1,0,0.2-0.1,0.3-0.1C72.5,20.2,72.4,20.2,72.2,20.3z"/>
	<path d="M72,20.3c0.1,0,0.2-0.1,0.3-0.1C72.2,20.3,72.1,20.3,72,20.3z"/>
	<path class="st3" d="M60.1,8.2c0.4,0,0.7,0.3,0.7,0.7c0,0.2-0.1,0.4-0.2,0.5s-0.3,0.2-0.5,0.2c-0.3,0-0.6,0.1-0.8,0.3
		c-0.2,0.2-0.3,0.5-0.4,0.8c0,0.4-0.3,0.7-0.7,0.7c-0.4,0-0.7-0.3-0.7-0.7c0-0.7,0.3-1.3,0.8-1.8S59.4,8.2,60.1,8.2z"/>
	<path d="M71.7,20.4c0.1,0,0.2,0,0.3-0.1C71.9,20.4,71.8,20.4,71.7,20.4z"/>
	<path d="M71.4,20.5c0.1,0,0.2,0,0.3,0C71.5,20.4,71.5,20.5,71.4,20.5z"/>
	<path d="M75.8,25.8c0.8,0.7,1.3,1.7,1.2,2.8c0,2-1.7,3.7-3.7,3.6c-0.1,0-0.2,0-0.3,0c-0.1,0-0.1,0-0.2,0s-0.2,0-0.3-0.1
		c-0.1,0-0.3-0.1-0.4-0.1s-0.1,0-0.2-0.1h-0.1c-0.1,0-0.1,0-0.2-0.1c-0.5-0.2-0.9-0.6-1.2-0.9l-0.1-0.1l0,0l-0.1-0.1
		c-0.1-0.1-0.1-0.2-0.2-0.3v-0.1c0,0,0,0,0-0.1c0,0,0,0,0-0.1s-0.1-0.1-0.1-0.2c0.3,0.1,0.6,0.2,0.9,0.3c0.5,0.8,1.4,1.3,2.4,1.3
		c0.8,0,1.6-0.3,2.1-0.8c0.6-0.6,0.9-1.3,0.9-2.1c0-1-0.5-1.9-1.2-2.5c0-0.3-0.1-0.6-0.2-0.9c0,0,0,0,0.1,0H75l0,0c0,0,0,0,0.1,0
		c0,0,0,0,0.1,0h0.1c0.1,0.1,0.2,0.1,0.3,0.2l0.1,0.1l0,0C75.7,25.7,75.8,25.8,75.8,25.8z"/>
	<path d="M75.7,25.7l0.1,0.1C75.8,25.8,75.7,25.7,75.7,25.7z"/>
	<path d="M75.5,25.6l0.1,0.1C75.6,25.7,75.6,25.6,75.5,25.6z"/>
	<path d="M75.2,25.4L75.2,25.4L75.2,25.4z"/>
	<path d="M75.1,25.3L75.1,25.3L75.1,25.3z"/>
	<path d="M75,25.3L75,25.3L75,25.3z"/>
	<path d="M74.9,25.2L74.9,25.2c0.1,0.3,0.2,0.6,0.2,0.9c-0.5-0.3-1.1-0.6-1.7-0.6c-0.8,0-1.6,0.3-2.1,0.8c-0.6,0.6-0.9,1.3-0.9,2.1
		c0,0.6,0.2,1.2,0.5,1.7C70.6,30,70.3,30,70,29.8c-0.2-0.4-0.3-0.9-0.3-1.5c0-2,1.7-3.7,3.7-3.6C73.9,24.9,74.4,25,74.9,25.2z"/>
	<path d="M70,20.4c0.1,0,0.1,0,0.2,0C70.1,20.4,70.1,20.4,70,20.4z"/>
	<path d="M73.4,24.2c2.4,0,4.3,2,4.3,4.5c0,1.2-0.5,2.3-1.3,3.1S74.5,33,73.3,33c-2.4,0-4.3-2-4.3-4.5c0-1.2,0.5-2.3,1.3-3.1
		C71.2,24.6,72.3,24.2,73.4,24.2z M77,28.6c0-1.1-0.5-2.1-1.2-2.8l-0.1-0.1l0,0l-0.1-0.1c-0.1-0.1-0.2-0.1-0.3-0.2h-0.1
		c0,0,0,0-0.1,0c0,0,0,0-0.1,0l0,0h-0.1c0,0,0,0-0.1,0l0,0c-0.4-0.2-0.9-0.3-1.4-0.3c-2,0-3.7,1.6-3.7,3.6c0,0.5,0.1,1,0.3,1.5
		c0,0.1,0.1,0.1,0.1,0.2c0,0,0,0,0,0.1c0,0,0,0,0,0.1v0.1c0.1,0.1,0.1,0.2,0.2,0.3l0.1,0.1l0,0l0.1,0.1c0.3,0.4,0.7,0.7,1.2,0.9
		c0.1,0,0.1,0.1,0.2,0.1H72c0.1,0,0.1,0,0.2,0.1s0.3,0.1,0.4,0.1s0.2,0,0.3,0.1c0.1,0,0.1,0,0.2,0s0.2,0,0.3,0l0,0
		C75.3,32.3,77,30.7,77,28.6z"/>
	<path class="st6" d="M75.1,26.1c0.8,0.6,1.3,1.5,1.2,2.5c0,0.8-0.3,1.5-0.9,2.1s-1.3,0.9-2.1,0.8c-1,0-1.9-0.5-2.4-1.3
		c0.2,0,0.3,0,0.5,0c2,0,3.7-1.6,3.7-3.6C75.1,26.5,75.1,26.3,75.1,26.1z"/>
	<path d="M69.2,20L69.2,20L69.2,20z"/>
	<path d="M67.6,18.3c0,0.1,0.1,0.2,0.1,0.2C67.7,18.4,67.6,18.3,67.6,18.3z"/>
	<path d="M68.1,19.1c-0.1-0.2-0.3-0.4-0.4-0.6C67.8,18.7,67.9,18.9,68.1,19.1z"/>
	<path d="M68.1,19.1c0.3,0.4,0.6,0.7,1,0.9C68.7,19.8,68.4,19.5,68.1,19.1z"/>
	<path class="st7" d="M75.1,26.1c0,0.2,0,0.3,0,0.5c0,2-1.7,3.7-3.7,3.6c-0.2,0-0.3,0-0.5,0c-0.3-0.5-0.5-1.1-0.5-1.7
		c0-0.8,0.3-1.5,0.9-2.1s1.3-0.9,2.1-0.8C74,25.6,74.6,25.8,75.1,26.1z M74.1,26.7c0-0.4-0.3-0.7-0.7-0.7c-0.7,0-1.3,0.2-1.8,0.7
		s-0.8,1.1-0.8,1.8c0,0.4,0.3,0.7,0.7,0.7c0.4,0,0.7-0.3,0.7-0.7c0-0.3,0.1-0.6,0.4-0.8c0.2-0.2,0.5-0.3,0.8-0.3
		c0.2,0,0.4-0.1,0.5-0.2C74,27.1,74.1,26.9,74.1,26.7z"/>
	<path class="st3" d="M73.4,26c0.4,0,0.7,0.3,0.7,0.7c0,0.2-0.1,0.4-0.2,0.5s-0.3,0.2-0.5,0.2c-0.3,0-0.6,0.1-0.8,0.3
		c-0.2,0.2-0.3,0.5-0.4,0.8c0,0.4-0.3,0.7-0.7,0.7c-0.4,0-0.7-0.3-0.7-0.7c0-0.7,0.3-1.3,0.8-1.8C72.1,26.3,72.7,26,73.4,26z"/>
	<path d="M59,14.3c0.1,0,0.1,0,0.2,0C59.2,14.3,59.1,14.3,59,14.3z"/>
	<path d="M58.2,14L58.2,14L58.2,14z"/>
	<path d="M56.6,12.2c0,0.1,0.1,0.2,0.1,0.2S56.7,12.3,56.6,12.2z"/>
	<path d="M57.1,13c-0.1-0.2-0.3-0.4-0.4-0.6C56.8,12.6,57,12.8,57.1,13z"/>
	<path d="M57.1,13c0.3,0.4,0.6,0.7,1,0.9C57.8,13.7,57.4,13.4,57.1,13z"/>
	<path d="M59.9,17.8c2,0,3.6,1.7,3.5,3.7c0,1-0.4,1.9-1.1,2.5c-0.7,0.7-1.6,1-2.6,1c-2,0-3.6-1.7-3.5-3.7c0-1,0.4-1.9,1.1-2.5
		C58,18.1,58.9,17.7,59.9,17.8z M62.7,21.4c0-1.6-1.2-2.9-2.8-2.9c-1.6,0-2.9,1.2-2.9,2.8c0,1.6,1.2,2.9,2.8,2.9
		C61.4,24.3,62.7,23,62.7,21.4z"/>
	<path d="M59.9,18.4c1.6,0,2.9,1.3,2.8,2.9c0,1.6-1.3,2.9-2.9,2.8c-1.6,0-2.9-1.3-2.8-2.9C56.9,19.7,58.3,18.4,59.9,18.4z M62,21.4
		c0-1.2-1-2.2-2.2-2.2c-0.6,0-1.1,0.2-1.6,0.6s-0.7,1-0.7,1.5c0,1.2,1,2.2,2.2,2.2c0.6,0,1.1-0.2,1.6-0.6S62,22,62,21.4z"/>
	<path d="M73.3,32.2L73.3,32.2c-0.1,0-0.2,0-0.3,0C73.1,32.2,73.2,32.2,73.3,32.2z"/>
	<path d="M72.8,32.2c0.1,0,0.1,0,0.2,0C72.9,32.2,72.9,32.2,72.8,32.2z"/>
	<path d="M72.5,32.2c0.1,0,0.2,0,0.3,0.1C72.7,32.2,72.6,32.2,72.5,32.2z"/>
	<path d="M71.9,32c0.1,0,0.1,0,0.2,0.1C72.1,32,72,32,71.9,32z"/>
	<path d="M71.7,31.9c0.1,0,0.1,0.1,0.2,0.1C71.8,31.9,71.7,31.9,71.7,31.9z"/>
	<path d="M70,30.1C70,30.2,70,30.2,70,30.1C70,30.2,70,30.2,70,30.1z"/>
	<path d="M70.1,30.3L70.1,30.3L70.1,30.3z"/>
	<path d="M70.4,30.8l-0.1-0.1C70.3,30.7,70.4,30.7,70.4,30.8z"/>
	<path d="M70.4,30.8l0.1,0.1C70.5,30.9,70.4,30.8,70.4,30.8z"/>
	<path d="M51.3,13.6c0.8,0.7,1.3,1.7,1.2,2.8c0,2-1.7,3.7-3.7,3.6c-1.1,0-2.1-0.5-2.8-1.3l-0.1-0.1l0,0c0-0.1-0.1-0.1-0.1-0.2
		c0,0,0,0,0-0.1c0,0,0-0.1-0.1-0.1l-0.1-0.1l0,0c0-0.1-0.1-0.2-0.1-0.2s0,0,0-0.1l0,0c0.3,0.1,0.6,0.2,0.9,0.3
		c0.5,0.8,1.4,1.3,2.4,1.3c0.8,0,1.6-0.3,2.1-0.8c0.6-0.6,0.9-1.3,0.9-2.1c0-1-0.5-1.9-1.2-2.5c0-0.3-0.1-0.6-0.2-0.9l0,0
		c0,0,0,0,0.1,0s0.2,0.1,0.2,0.1l0,0l0.1,0.1c0,0,0.1,0,0.1,0.1c0,0,0,0,0.1,0s0.1,0.1,0.2,0.1l0,0C51.2,13.6,51.2,13.6,51.3,13.6z"
		/>
	<path d="M51.2,13.5l0.1,0.1C51.2,13.6,51.2,13.6,51.2,13.5z"/>
	<path d="M50.9,13.4c0.1,0,0.1,0.1,0.2,0.1C51.1,13.5,51,13.4,50.9,13.4z"/>
	<path d="M50.9,13.4C50.9,13.4,50.9,13.3,50.9,13.4C50.9,13.3,50.9,13.4,50.9,13.4z"/>
	<path d="M50.8,13.3l-0.1-0.1C50.7,13.2,50.7,13.2,50.8,13.3z"/>
	<path d="M50.6,13.2c-0.1,0-0.1-0.1-0.2-0.1C50.5,13.1,50.6,13.1,50.6,13.2z"/>
	<path d="M50.4,13.1C50.4,13.1,50.4,13,50.4,13.1C50.4,13,50.4,13.1,50.4,13.1z"/>
	<path d="M48.9,12c2.4,0,4.3,2,4.3,4.5c0,1.2-0.5,2.3-1.3,3.1c-0.8,0.8-1.9,1.2-3.1,1.2c-2.4,0-4.3-2-4.3-4.5c0-1.2,0.5-2.3,1.3-3.1
		C46.6,12.4,47.7,12,48.9,12z M52.5,16.5c0-1.1-0.5-2.1-1.2-2.8l-0.1-0.1l0,0c-0.1-0.1-0.1-0.1-0.2-0.1c0,0,0,0-0.1,0
		c0,0-0.1,0-0.1-0.1l-0.1-0.1l0,0c-0.1,0-0.1-0.1-0.2-0.1c0,0,0,0-0.1,0l0,0C50,13,49.5,12.9,49,12.9c-2,0-3.7,1.6-3.7,3.6
		c0,0.5,0.1,1,0.3,1.5l0,0c0,0,0,0,0,0.1s0.1,0.2,0.1,0.2l0,0l0.1,0.1c0,0,0,0.1,0.1,0.1c0,0,0,0,0,0.1s0.1,0.1,0.1,0.2l0,0l0.1,0.1
		c0.7,0.8,1.7,1.3,2.8,1.3C50.8,20.1,52.5,18.5,52.5,16.5z"/>
	<path d="M50.3,13c0.1,0.3,0.2,0.6,0.2,0.9c-0.5-0.3-1.1-0.6-1.7-0.6c-0.8,0-1.6,0.3-2.1,0.8s-0.9,1.3-0.9,2.1
		c0,0.6,0.2,1.2,0.5,1.7c-0.3-0.1-0.6-0.1-0.9-0.3c-0.2-0.4-0.3-0.9-0.3-1.5c0-2,1.7-3.7,3.7-3.6C49.4,12.7,49.9,12.8,50.3,13z"/>
	<path class="st8" d="M50.6,14c0.8,0.6,1.3,1.5,1.2,2.5c0,0.8-0.3,1.5-0.9,2.1s-1.3,0.9-2.1,0.8c-1,0-1.9-0.5-2.4-1.3
		c0.2,0,0.3,0,0.5,0c2,0,3.7-1.6,3.7-3.6C50.6,14.3,50.6,14.1,50.6,14z"/>
	<path class="st9" d="M50.6,14c0,0.2,0,0.3,0,0.5c0,2-1.7,3.7-3.7,3.6c-0.2,0-0.3,0-0.5,0c-0.3-0.5-0.5-1.1-0.5-1.7
		c0-0.8,0.3-1.5,0.9-2.1s1.3-0.9,2.1-0.8C49.5,13.4,50.1,13.6,50.6,14z M49.6,14.6c0-0.4-0.3-0.7-0.7-0.7c-0.7,0-1.3,0.2-1.8,0.7
		s-0.8,1.1-0.8,1.8c0,0.4,0.3,0.7,0.7,0.7c0.4,0,0.7-0.3,0.7-0.7c0-0.3,0.1-0.6,0.4-0.8c0.2-0.2,0.5-0.3,0.8-0.3
		c0.2,0,0.4-0.1,0.5-0.2C49.5,14.9,49.6,14.8,49.6,14.6z"/>
	<path class="st3" d="M48.9,13.9c0.4,0,0.7,0.3,0.7,0.7c0,0.2-0.1,0.4-0.2,0.5s-0.3,0.2-0.5,0.2c-0.3,0-0.6,0.1-0.8,0.3
		c-0.2,0.2-0.3,0.5-0.4,0.8c0,0.4-0.3,0.7-0.7,0.7c-0.4,0-0.7-0.3-0.7-0.7c0-0.7,0.3-1.3,0.8-1.8S48.2,13.9,48.9,13.9z"/>
	<path d="M45.4,17.8L45.4,17.8L45.4,17.8z"/>
	<path d="M45.6,18.1c0-0.1-0.1-0.2-0.1-0.2S45.5,18,45.6,18.1z"/>
	<path d="M45.6,18.2l-0.1-0.1C45.6,18.1,45.6,18.2,45.6,18.2z"/>
	<path d="M45.7,18.3C45.7,18.4,45.7,18.4,45.7,18.3C45.7,18.4,45.7,18.4,45.7,18.3z"/>
	<path d="M45.9,18.6c0-0.1-0.1-0.1-0.1-0.2C45.8,18.5,45.8,18.5,45.9,18.6z"/>
	<path d="M45.9,18.6C45.9,18.7,45.9,18.7,45.9,18.6C46,18.7,45.9,18.7,45.9,18.6z"/>
	<path d="M50.4,26c0.8,0.7,1.3,1.7,1.2,2.8c0,2-1.7,3.7-3.7,3.6c-0.4,0-0.9-0.1-1.3-0.2c-0.1,0-0.2-0.1-0.2-0.1l0,0
		c-0.1,0-0.1-0.1-0.2-0.1c-0.4-0.2-0.8-0.5-1.1-0.9l0,0c0,0,0,0-0.1-0.1l-0.1-0.1c0-0.1-0.1-0.1-0.1-0.2c0,0,0,0,0-0.1v-0.1
		c0-0.1-0.1-0.1-0.1-0.2v-0.1v-0.1c0.3,0.1,0.6,0.2,0.9,0.3c0.5,0.8,1.4,1.3,2.4,1.3c0.8,0,1.6-0.3,2.1-0.8c0.6-0.6,0.9-1.3,0.9-2.1
		c0-1-0.5-1.9-1.2-2.5c0-0.3-0.1-0.6-0.2-0.9c0.1,0,0.1,0.1,0.2,0.1c0,0,0.1,0,0.1,0.1c0.1,0.1,0.3,0.2,0.4,0.3L50.4,26L50.4,26
		C50.3,25.9,50.4,26,50.4,26z"/>
	<path d="M50.3,25.9l0.1,0.1L50.3,25.9z"/>
	<path d="M50.1,25.8l0.1,0.1C50.2,25.9,50.2,25.8,50.1,25.8z"/>
	<path d="M49.7,25.5c0,0-0.1,0-0.1-0.1C49.7,25.5,49.7,25.5,49.7,25.5z"/>
	<path d="M48,24.4c2.4,0,4.3,2,4.3,4.5c0,1.2-0.5,2.3-1.3,3.1c-0.8,0.8-1.9,1.2-3.1,1.2c-2.4,0-4.3-2-4.3-4.5c0-1.2,0.5-2.3,1.3-3.1
		C45.8,24.8,46.9,24.4,48,24.4z M51.6,28.8c0-1.1-0.5-2.1-1.2-2.8l-0.1-0.1l0,0l-0.1-0.1c-0.1-0.1-0.3-0.2-0.4-0.3
		c0,0-0.1,0-0.1-0.1c-0.1,0-0.1-0.1-0.2-0.1c-0.4-0.2-0.9-0.3-1.4-0.3c-2,0-3.7,1.6-3.7,3.6c0,0.5,0.1,1.1,0.3,1.5v0.1
		c0,0.1,0.1,0.1,0.1,0.2v0.1c0,0,0,0,0,0.1s0.1,0.2,0.1,0.2l0.1,0.1c0,0,0,0,0.1,0.1l0,0c0.3,0.4,0.7,0.7,1.1,0.9
		c0.1,0,0.1,0.1,0.2,0.1l0,0c0.1,0,0.2,0.1,0.2,0.1c0.4,0.2,0.8,0.2,1.3,0.2C49.9,32.5,51.6,30.9,51.6,28.8z"/>
	<path d="M49.5,25.4c0.1,0.3,0.2,0.6,0.2,0.9c-0.5-0.3-1.1-0.6-1.7-0.6c-0.8,0-1.6,0.3-2.1,0.8c-0.6,0.6-0.9,1.3-0.9,2.1
		c0,0.6,0.2,1.2,0.5,1.7c-0.3-0.1-0.6-0.1-0.9-0.3v0.1c-0.2-0.5-0.3-1-0.3-1.5c0-2,1.7-3.7,3.7-3.6C48.5,25.1,49,25.2,49.5,25.4z"/>
	<path class="st10" d="M49.7,26.3c0.8,0.6,1.3,1.5,1.2,2.5c0,0.8-0.3,1.5-0.9,2.1s-1.3,0.9-2.1,0.8c-1,0-1.9-0.5-2.4-1.3
		c0.2,0,0.3,0,0.5,0c2,0,3.7-1.6,3.7-3.6C49.7,26.7,49.7,26.5,49.7,26.3z"/>
	<path class="st11" d="M49.7,26.3c0,0.2,0,0.3,0,0.5c0,2-1.7,3.7-3.7,3.6c-0.2,0-0.3,0-0.5,0c-0.3-0.5-0.5-1.1-0.5-1.7
		c0-0.8,0.3-1.5,0.9-2.1s1.3-0.9,2.1-0.8C48.6,25.8,49.2,26,49.7,26.3z M48.7,26.9c0-0.4-0.3-0.7-0.7-0.7c-0.7,0-1.3,0.2-1.8,0.7
		s-0.8,1.1-0.8,1.8c0,0.4,0.3,0.7,0.7,0.7c0.4,0,0.7-0.3,0.7-0.7c0-0.3,0.1-0.6,0.4-0.8c0.2-0.2,0.5-0.3,0.8-0.3
		c0.2,0,0.4-0.1,0.5-0.2C48.6,27.3,48.7,27.1,48.7,26.9z"/>
	<path class="st3" d="M48,26.2c0.4,0,0.7,0.3,0.7,0.7c0,0.2-0.1,0.4-0.2,0.5s-0.3,0.2-0.5,0.2c-0.3,0-0.6,0.1-0.8,0.3
		c-0.2,0.2-0.3,0.5-0.4,0.8c0,0.4-0.3,0.7-0.7,0.7c-0.4,0-0.7-0.3-0.7-0.7c0-0.7,0.3-1.3,0.8-1.8C46.7,26.5,47.3,26.2,48,26.2z"/>
	<path d="M46.4,32.1c0.1,0,0.2,0.1,0.2,0.1C46.5,32.2,46.5,32.1,46.4,32.1z"/>
	<path d="M44.6,30.2C44.6,30.2,44.6,30.3,44.6,30.2C44.6,30.3,44.6,30.2,44.6,30.2z"/>
	<path d="M46.2,32c0.1,0,0.1,0.1,0.2,0.1C46.3,32.1,46.3,32,46.2,32z"/>
	<path d="M44.6,30.3c0,0.1,0.1,0.1,0.1,0.2C44.7,30.4,44.6,30.3,44.6,30.3z"/>
	<path d="M44.7,30.5C44.7,30.6,44.8,30.6,44.7,30.5C44.8,30.6,44.7,30.6,44.7,30.5z"/>
	<path d="M45,31l-0.1-0.1C44.9,30.9,45,30.9,45,31z"/>
	<path d="M45.1,31C45.1,31.1,45.1,31.1,45.1,31C45.1,31.1,45.1,31.1,45.1,31z"/>
</g>
</svg>
