<svg width="30" height="30" viewBox="0 0 30 30" fill="none" xmlns="http://www.w3.org/2000/svg">
<g clip-path="url(#clip0)">
<path d="M30.0005 22.7344C30.0005 19.2862 27.5976 16.4011 24.3755 15.657C23.8479 15.5353 23.2994 15.4687 22.7348 15.4687C22.5771 15.4687 22.4212 15.4755 22.2661 15.4854C18.7451 15.7099 15.907 18.4408 15.5166 21.9141C15.4863 22.1834 15.4692 22.4569 15.4692 22.7344C15.4692 23.257 15.5257 23.7663 15.6305 24.2578C16.3308 27.5388 19.2448 30 22.7348 30C26.7476 30 30.0005 26.7471 30.0005 22.7344ZM22.7348 27.5391C20.0812 27.5391 17.9301 25.3879 17.9301 22.7344C17.9301 20.0808 20.0812 17.9297 22.7348 17.9297C25.3884 17.9297 27.5395 20.0808 27.5395 22.7344C27.5395 25.3879 25.3884 27.5391 22.7348 27.5391Z" fill="#CB0303"/>
<path d="M23.6719 19.4531H22.0313V22.0313H19.4531V23.6719H23.6719V22.0313V19.4531Z" fill="#CB0303"/>
<path d="M5.39012 0C4.93777 0 4.56982 0.36799 4.56982 0.820294V2.69529V4.6875C4.56982 5.13985 4.93777 5.50779 5.39012 5.50779H6.09326C6.54561 5.50779 6.91355 5.1398 6.91355 4.6875V2.69529V0.820294C6.91355 0.36799 6.54561 0 6.09321 0H5.39012Z" fill="#CB0303"/>
<path d="M18.2812 0C17.8289 0 17.4609 0.36799 17.4609 0.820294V2.69529V4.6875C17.4609 5.13985 17.8289 5.50779 18.2812 5.50779H18.9843C19.4367 5.50779 19.8046 5.1398 19.8046 4.6875V2.69529V0.820294C19.8046 0.36799 19.4366 0 18.9843 0H18.2812Z" fill="#CB0303"/>
<path d="M1.875 24.2578H13.4766C13.3622 23.6892 13.3015 23.1016 13.3015 22.5C13.3015 22.3029 13.3101 22.1079 13.3228 21.9141H3.51564C2.73892 21.9141 2.10936 21.2845 2.10936 20.5078V9.25778H22.2656V13.6062C22.4208 13.5982 22.5771 13.5938 22.7344 13.5938C23.295 13.5938 23.8427 13.6481 24.375 13.7477V4.57028C24.375 3.53479 23.5355 2.69528 22.5 2.69528H20.9766V4.68749C20.9766 5.78602 20.0829 6.67969 18.9844 6.67969H18.2812C17.1827 6.67969 16.289 5.78602 16.289 4.68749V2.69528H8.08593V4.68749C8.08593 5.78602 7.19226 6.67969 6.09373 6.67969H5.39059C4.29206 6.67969 3.39838 5.78602 3.39838 4.68749V2.69528H1.875C0.83951 2.69528 0 3.53484 0 4.57028V22.3828C0 23.4183 0.83951 24.2578 1.875 24.2578Z" fill="#CB0303"/>
<path d="M6.60609 14.6339C7.63361 14.6339 8.46658 13.8009 8.46658 12.7734C8.46658 11.7459 7.63361 10.9129 6.60609 10.9129C5.57857 10.9129 4.74561 11.7459 4.74561 12.7734C4.74561 13.8009 5.57857 14.6339 6.60609 14.6339Z" fill="#CB0303"/>
<path d="M12.1876 14.6339C13.2151 14.6339 14.0481 13.8009 14.0481 12.7734C14.0481 11.7459 13.2151 10.9129 12.1876 10.9129C11.1601 10.9129 10.3271 11.7459 10.3271 12.7734C10.3271 13.8009 11.1601 14.6339 12.1876 14.6339Z" fill="#CB0303"/>
<path d="M17.7677 14.6339C18.7952 14.6339 19.6282 13.8009 19.6282 12.7734C19.6282 11.7459 18.7952 10.9129 17.7677 10.9129C16.7402 10.9129 15.9072 11.7459 15.9072 12.7734C15.9072 13.8009 16.7402 14.6339 17.7677 14.6339Z" fill="#CB0303"/>
<path d="M12.1876 20.2589C13.2151 20.2589 14.048 19.4259 14.048 18.3984C14.048 17.371 13.2151 16.538 12.1876 16.538C11.1601 16.538 10.3271 17.371 10.3271 18.3984C10.3271 19.4259 11.1601 20.2589 12.1876 20.2589Z" fill="#CB0303"/>
<path d="M6.60605 20.2589C7.63354 20.2589 8.46649 19.4259 8.46649 18.3984C8.46649 17.371 7.63354 16.538 6.60605 16.538C5.57855 16.538 4.74561 17.371 4.74561 18.3984C4.74561 19.4259 5.57855 20.2589 6.60605 20.2589Z" fill="#CB0303"/>
</g>
<defs>
<clipPath id="clip0">
<rect width="30" height="30" fill="white"/>
</clipPath>
</defs>
</svg>
