<svg width="512" height="430" viewBox="0 0 512 430" fill="none" xmlns="http://www.w3.org/2000/svg">
            <path d="M457 60H356.812L347.069 30.77C340.933 12.365 323.776 0 304.377 0H207.623C188.224 0 171.067 12.365 164.932 30.77L155.188 60H131V35C131 15.701 115.299 0 96 0H76C56.701 0 41 15.701 41 35V61.812C17.432 68.02 0 89.51 0 115V375C0 405.327 24.673 430 55 430H457C487.327 430 512 405.327 512 375V115C512 84.673 487.327 60 457 60ZM71 35C71 32.243 73.243 30 76 30H96C98.757 30 101 32.243 101 35V60H71V35ZM482 375C482 388.785 470.785 400 457 400H55C41.215 400 30 388.785 30 375V115C30 101.215 41.215 90 55 90H166C172.456 90 178.188 85.869 180.23 79.743L193.392 40.257C195.438 34.122 201.156 30 207.623 30H304.377C310.844 30 316.563 34.122 318.607 40.256L331.769 79.743C333.812 85.869 339.544 90 346 90H457C470.785 90 482 101.215 482 115V375Z" fill="black"/>
            <path d="M436 150C444.284 150 451 143.284 451 135C451 126.716 444.284 120 436 120C427.716 120 421 126.716 421 135C421 143.284 427.716 150 436 150Z" fill="black"/>
            <path d="M106 120H76C67.716 120 61 126.716 61 135C61 143.284 67.716 150 76 150H106C114.284 150 121 143.284 121 135C121 126.716 114.284 120 106 120Z" fill="black"/>
            <path d="M256 370C181.561 370 121 309.439 121 235C121 160.561 181.561 100 256 100C330.439 100 391 160.561 391 235C391 309.439 330.439 370 256 370ZM256 130C198.103 130 151 177.103 151 235C151 292.897 198.103 340 256 340C313.897 340 361 292.897 361 235C361 177.103 313.897 130 256 130Z" fill="black"/>
            <path d="M256 310C214.645 310 181 276.355 181 235C181 193.645 214.645 160 256 160C297.355 160 331 193.645 331 235C331 276.355 297.355 310 256 310ZM256 190C231.187 190 211 210.187 211 235C211 259.813 231.187 280 256 280C280.813 280 301 259.813 301 235C301 210.187 280.813 190 256 190Z" fill="black"/>
</svg>