<svg width="88" height="47" viewBox="0 0 88 47" fill="none" xmlns="http://www.w3.org/2000/svg">
<g clip-path="url(#clip0)">
<path d="M4.80005 24C4.80005 36.1001 13.9 44.4001 25 44.4001C29 44.4001 31.5 43.2001 34.7001 41.8C34.7001 39.8 34.7001 31.5 34.7001 31.5C32.1 33.2001 29.4 34.7001 25.6 34.7001C19.5 34.7001 14.9 30.5 14.9 24.2001C14.9 17.5001 18.5 12.6 25.1 12.6C29.9 12.6 32.4 14.1 34.8 16C34.8 11.4 34.8 5.30005 34.8 5.30005C31.2 3.30005 28.7 2.80005 24.6 2.80005C13.3 2.80005 4.80005 11.4 4.80005 24Z" fill="#1D1D1B"/>
<path d="M62.1 2.30004C67.9 2.40004 73.4001 4.80004 77.4001 9.00004C81.4001 13.2 83.6 18.7 83.5 24.6C83.4001 28.4 82.4001 32.1 80.4001 35.4C79.4001 37.1 78.2001 38.6 76.8001 40C75.6001 41.2 74.2001 42.2 72.8001 43.1C71.4001 43.9 69.8001 43.9 68.4001 43.1C67.0001 42.3 66.2 40.8 66.2 39.2L66.3001 33.5C66.3001 30.8 64.2 28.6 61.6 28.6C60.3 28.6 59.1 29.1 58.2001 30C57.3001 30.9 56.7001 32.1 56.7001 33.4L56.6 39.1C56.6 40.7 55.7 42.1 54.3 42.9C52.9 43.7 51.2001 43.6 49.9001 42.7C46.8001 40.7 44.3 38 42.5 34.8C40.7 31.5 39.8 27.7 39.8 23.9C39.9 18.1 42.3 12.6 46.5 8.60004C50.7 4.30004 56.3 2.20004 62.1 2.30004ZM82.9001 24.5C83.1001 12.8 73.8 3.20004 62.1 2.90004C50.4 2.70004 40.7 12 40.5 23.7C40.4 31.3 44.2001 38.1 50.2001 41.9C52.6 43.5 55.8001 41.8 55.9001 38.9L56 33.2C56.1 30.1 58.6 27.7 61.6 27.8C63.1 27.8 64.5 28.5 65.5 29.5C66.5 30.5 67.1 31.9 67 33.4L66.9001 39.1C66.8001 42 70.0001 43.8 72.4001 42.4C78.6001 38.8 82.7001 32.2 82.9001 24.5Z" fill="black"/>
<path d="M74.4 14.0001C75.2 14.7001 75.7 15.7001 75.6 16.8001C75.6 17.0001 75.6 17.1001 75.6 17.3001C75.6 17.4001 75.6 17.5001 75.6 17.6001V17.7001C75.6 17.8001 75.6 17.9001 75.5 18.0001C75.5 18.1001 75.4 18.2001 75.4 18.3001C75.4 18.4001 75.3 18.5001 75.2 18.6001C74.8 19.3001 74.3 19.8001 73.6 20.2001C73.5 20.3001 73.4 20.3001 73.3 20.3001C73.2 20.3001 73.1 20.4001 73 20.4001C72.9 20.4001 72.8 20.4001 72.7 20.5001H72.6C72.5 20.5001 72.4 20.5001 72.3 20.5001C72.1 20.5001 72 20.5001 71.8 20.5001C71.6 20.5001 71.3 20.5001 71.1 20.4001C71 20.4001 71 20.4001 70.9 20.4001C70.6 20.3001 70.4 20.2001 70.1 20.1001C70.1 20.1001 70.1 20.1001 70 20.1001C69.6 19.9001 69.2 19.6001 69 19.2001C68.9 19.0001 68.7 18.8001 68.6 18.6001C68.6 18.5001 68.5 18.4001 68.5 18.4001V18.3001C68.8 18.4001 69.1 18.5001 69.4 18.6001C69.9 19.4001 70.8 19.9001 71.8 19.9001C72.6 19.9001 73.4 19.6001 73.9 19.1001C74.4 18.6001 74.8 17.8001 74.8 17.0001C74.8 16.0001 74.3 15.1001 73.6 14.5001C73.6 14.2001 73.5 13.9001 73.4 13.6001C73.4 13.6001 73.4 13.6001 73.5 13.6001C73.6 13.6001 73.7 13.7001 73.7 13.7001L73.8 13.8001C73.8 13.8001 73.9 13.8001 73.9 13.9001C73.9 13.9001 73.9 13.9001 74 13.9001C74.1 13.9001 74.1 14.0001 74.2 14.0001C74.3 14.0001 74.4 14.0001 74.4 14.0001Z" fill="black"/>
<path d="M74.3 13.9L74.4 14C74.4 14 74.3 14 74.3 13.9Z" fill="black"/>
<path d="M74.1001 13.8C74.2001 13.8 74.2001 13.9 74.3001 13.9C74.2001 13.9 74.1001 13.8 74.1001 13.8Z" fill="black"/>
<path d="M73.9 13.7001L73.8 13.6001C73.8 13.6001 73.9 13.7001 73.9 13.7001Z" fill="black"/>
<path d="M73.8001 13.6C73.7001 13.6 73.7001 13.5 73.6001 13.5C73.6001 13.5 73.7001 13.6 73.8001 13.6Z" fill="black"/>
<path d="M72.0001 12.4C74.4001 12.4 76.3001 14.4 76.3001 16.9C76.3001 18.1 75.8001 19.2 75.0001 20C74.2001 20.8 73.1001 21.2 71.9001 21.2C69.5001 21.2 67.6001 19.2 67.6001 16.7C67.6001 15.5 68.1001 14.4 68.9001 13.6C69.8001 12.8 70.9001 12.4 72.0001 12.4ZM75.6001 16.9C75.6001 15.8 75.1001 14.8 74.4001 14.1L74.3001 14C74.2001 13.9 74.2001 13.9 74.1001 13.9C74.1001 13.9 74.1001 13.9 74.0001 13.9C74.0001 13.9 73.9001 13.9 73.9001 13.8L73.8001 13.7C73.7001 13.7 73.7001 13.6 73.6001 13.6C73.6001 13.6 73.6001 13.6 73.5001 13.6C73.1001 13.4 72.6001 13.3 72.1001 13.3C70.1001 13.3 68.4001 14.9 68.4001 16.9C68.4001 17.4 68.5001 18 68.7001 18.4C68.7001 18.5 68.8001 18.6 68.8001 18.6C68.9001 18.8 69.0001 19 69.2001 19.2C69.5001 19.6 69.8001 19.9 70.2001 20.1C70.2001 20.1 70.2001 20.1 70.3001 20.1C70.5001 20.2 70.8001 20.3 71.1001 20.4C71.2001 20.4 71.2001 20.4 71.3001 20.4C71.5001 20.4 71.8001 20.5 72.0001 20.5C72.2001 20.5 72.3001 20.5 72.5001 20.5C72.6001 20.5 72.7001 20.5 72.8001 20.5H72.9001C73.0001 20.5 73.1001 20.5 73.2001 20.4C73.3001 20.4 73.4001 20.3 73.5001 20.3C73.6001 20.3 73.7001 20.2 73.8001 20.2C74.5001 19.9 75.1001 19.3 75.4001 18.6C75.5001 18.5 75.5001 18.4 75.6001 18.3C75.6001 18.2 75.7001 18.1 75.7001 18C75.7001 17.9 75.8001 17.8 75.8001 17.7V17.6C75.8001 17.5 75.8001 17.4 75.8001 17.3C75.6001 17.2 75.6001 17 75.6001 16.9Z" fill="black"/>
<path d="M73.5 13.4C73.6 13.7 73.7 14 73.7 14.3C73.2 14 72.6 13.7 72 13.7C71.2 13.7 70.4 14 69.9 14.5C69.3 15.1 69 15.8 69 16.6C69 17.2 69.2 17.8 69.5 18.3C69.2 18.2 68.9 18.2 68.6 18V18.1C68.4 17.6 68.3 17.1 68.3 16.6C68.3 14.6 70 12.9 72 13C72.5 13.1 73 13.2 73.5 13.4Z" fill="black"/>
<path d="M73.7 14.4C74.5 15 75 15.9 74.9 16.9C74.9 17.7 74.6 18.4 74 19C73.4 19.6 72.7 19.9 71.9 19.8C70.9 19.8 70 19.3 69.5 18.5C69.7 18.5 69.8 18.5 70 18.5C72 18.5 73.7 16.9 73.7 14.9C73.7 14.7 73.7 14.5 73.7 14.4Z" fill="#87A1FF"/>
<path d="M62.1001 3.00003C73.8001 3.20003 83.1001 12.9 82.9001 24.6C82.8001 32.2 78.6001 38.8 72.5001 42.4C70.0001 43.9 66.9001 42 67.0001 39.1L67.1001 33.4C67.1001 31.9 66.5001 30.5 65.6001 29.5C64.6001 28.5 63.2001 27.8 61.7001 27.8C58.6001 27.7 56.1001 30.2 56.1001 33.2L56.0001 38.9C55.9001 41.8 52.7001 43.5 50.3001 41.9C44.3001 38.1 40.5001 31.3 40.6001 23.7C40.7001 12.1 50.4001 2.70003 62.1001 3.00003ZM82.2001 24.5C82.4001 13.2 73.4001 3.90003 62.1001 3.60003C56.6001 3.50003 51.5001 5.50003 47.5001 9.30003C43.6001 13.1 41.3001 18.2 41.2001 23.6C41.1001 30.7 44.6001 37.3 50.6001 41.2C51.5001 41.8 52.7001 41.8 53.6001 41.3C54.6001 40.8 55.2001 39.8 55.2001 38.7L55.3001 33C55.3001 31.3 56.0001 29.8 57.2001 28.6C58.4001 27.4 60.0001 26.8 61.6001 26.9C65.0001 27 67.8001 29.8 67.7001 33.2L67.6001 38.9C67.6001 40 68.1001 41 69.1001 41.6C70.0001 42.1 71.2001 42.1 72.1001 41.6C78.3001 38.1 82.0001 31.7 82.2001 24.5Z" fill="black"/>
<path d="M73.7 14.4C73.7 14.6 73.7 14.7 73.7 14.9C73.7 16.9 72 18.6 70 18.5C69.8 18.5 69.7 18.5 69.5 18.5C69.2 18 69 17.4 69 16.8C69 16 69.3 15.3 69.9 14.7C70.5 14.1 71.2 13.8 72 13.9C72.6 13.8 73.2 14 73.7 14.4ZM72.7 15C72.7 14.6 72.4 14.3 72 14.3C71.3 14.3 70.7 14.5 70.2 15C69.7 15.5 69.4 16.1 69.4 16.8C69.4 17.2 69.7 17.5 70.1 17.5C70.5 17.5 70.8 17.2 70.8 16.8C70.8 16.5 70.9 16.2 71.2 16C71.5 15.8 71.7 15.7 72 15.7C72.2 15.7 72.4 15.6 72.5 15.5C72.6 15.3 72.7 15.2 72.7 15Z" fill="#9CC4FF"/>
<path d="M62.0999 3.69998C73.3999 3.89998 82.3999 13.3 82.1999 24.6C82.0999 31.8 78.2999 38.2 72.1999 41.9C71.2999 42.5 70.0999 42.5 69.1999 41.9C68.1999 41.3 67.6999 40.4 67.6999 39.2L67.7999 33.5C67.8999 30.1 65.0999 27.2 61.6999 27.2C59.9999 27.2 58.4999 27.8 57.2999 28.9C56.0999 30.1 55.3999 31.6 55.3999 33.3L55.2999 39C55.2999 40.1 54.6999 41.1 53.6999 41.6C52.6999 42.1 51.5999 42.1 50.6999 41.5C44.6999 37.6 41.1999 31 41.2999 23.9C41.3999 18.5 43.5999 13.4 47.5999 9.59998C51.3999 5.59998 56.5999 3.59998 62.0999 3.69998ZM76.2999 16.9C76.2999 14.5 74.3999 12.5 71.9999 12.4C70.7999 12.4 69.6999 12.8 68.8999 13.6C68.0999 14.4 67.5999 15.5 67.5999 16.7C67.5999 19.1 69.4999 21.1 71.8999 21.2C73.0999 21.2 74.1999 20.8 74.9999 20C75.7999 19.1 76.2999 18 76.2999 16.9ZM65.3999 10.8C65.3999 8.39998 63.4999 6.39998 61.0999 6.29998C59.8999 6.29998 58.7999 6.69998 57.9999 7.49998C57.1999 8.29998 56.6999 9.39998 56.6999 10.6C56.6999 13 58.5999 15 60.9999 15.1C62.1999 15.1 63.2999 14.7 64.0999 13.9C64.8999 13.1 65.2999 12 65.3999 10.8ZM78.6999 28.6C78.6999 26.2 76.7999 24.2 74.3999 24.1C73.1999 24.1 72.0999 24.5 71.2999 25.3C70.4999 26.1 69.9999 27.2 69.9999 28.4C69.9999 30.8 71.8999 32.8 74.2999 32.9C75.4999 32.9 76.5999 32.5 77.3999 31.7C78.1999 30.9 78.6999 29.8 78.6999 28.6ZM64.3999 21.4C64.3999 19.4 62.8999 17.8 60.8999 17.7C59.8999 17.7 58.9999 18 58.2999 18.7C57.5999 19.4 57.1999 20.3 57.1999 21.2C57.1999 23.2 58.6999 24.8 60.6999 24.9C61.6999 24.9 62.5999 24.6 63.2999 23.9C63.9999 23.3 64.3999 22.4 64.3999 21.4ZM54.1999 16.5C54.1999 14.1 52.2999 12.1 49.8999 12C48.6999 12 47.5999 12.4 46.7999 13.2C45.9999 14 45.4999 15.1 45.4999 16.3C45.4999 18.7 47.3999 20.7 49.7999 20.8C50.9999 20.8 52.0999 20.4 52.8999 19.6C53.6999 18.7 54.1999 17.6 54.1999 16.5ZM53.2999 28.8C53.2999 26.4 51.3999 24.4 48.9999 24.3C47.7999 24.3 46.6999 24.7 45.8999 25.5C45.0999 26.3 44.5999 27.4 44.5999 28.6C44.5999 31 46.4999 33 48.8999 33.1C50.0999 33.1 51.1999 32.7 51.9999 31.9C52.7999 31.1 53.2999 30 53.2999 28.8Z" fill="#1D1D1B"/>
<path d="M72.0001 14.3C72.4001 14.3 72.7001 14.6 72.7001 15C72.7001 15.2 72.6001 15.4 72.5001 15.5C72.4001 15.6 72.2001 15.7 72.0001 15.7C71.7001 15.7 71.4001 15.8 71.2001 16C71.0001 16.2 70.9001 16.5 70.8001 16.8C70.8001 17.2 70.5001 17.5 70.1001 17.5C69.7001 17.5 69.4001 17.2 69.4001 16.8C69.4001 16.1 69.7001 15.5 70.2001 15C70.7001 14.5 71.3001 14.3 72.0001 14.3Z" fill="white"/>
<path d="M75.5 18.0001C75.5 17.9001 75.6 17.8001 75.6 17.7001C75.5 17.8001 75.5 17.9001 75.5 18.0001Z" fill="black"/>
<path d="M75.4001 18.2C75.4001 18.1 75.5001 18 75.5001 17.9C75.4001 18 75.4001 18.1 75.4001 18.2Z" fill="black"/>
<path d="M75.2 18.5001C75.3 18.4001 75.3 18.3001 75.4 18.2001C75.3 18.3001 75.3 18.4001 75.2 18.5001Z" fill="black"/>
<path d="M73.6001 20.1C74.3001 19.8 74.9001 19.2 75.2001 18.5C74.8001 19.2 74.3001 19.8 73.6001 20.1Z" fill="black"/>
<path d="M63.4001 8C64.2001 8.7 64.7001 9.7 64.6001 10.8C64.6001 12.8 62.9001 14.5 60.9001 14.4C60.7001 14.4 60.4001 14.4 60.2001 14.3C60.1001 14.3 60.1001 14.3 60.0001 14.3C59.7001 14.2 59.5001 14.1 59.2001 14C59.2001 14 59.2001 14 59.1001 14C58.7001 13.8 58.3001 13.5 58.1001 13.1C58.0001 12.9 57.8001 12.7 57.7001 12.5C57.7001 12.4 57.6001 12.3 57.6001 12.3V12.2C57.9001 12.3 58.2001 12.4 58.5001 12.5C59.0001 13.3 59.9001 13.8 60.9001 13.8C61.7001 13.8 62.5001 13.5 63.0001 13C63.6001 12.4 63.9001 11.7 63.9001 10.9C63.9001 9.9 63.4001 9 62.7001 8.4C62.7001 8.1 62.6001 7.8 62.5001 7.5C62.6001 7.5 62.6001 7.6 62.7001 7.6C62.7001 7.6 62.8001 7.6 62.8001 7.7C62.9001 7.8 63.1001 7.9 63.2001 8L63.3001 8.1C63.4001 7.9 63.4001 7.9 63.4001 8Z" fill="black"/>
<path d="M63.3 7.90002L63.4001 8.00002C63.4001 7.90002 63.4 7.90002 63.3 7.90002Z" fill="black"/>
<path d="M63.2 7.80005L63.2999 7.90005C63.2999 7.80005 63.2 7.80005 63.2 7.80005Z" fill="black"/>
<path d="M62.7999 7.50002C62.7999 7.50002 62.7 7.50002 62.7 7.40002C62.7 7.50002 62.7999 7.50002 62.7999 7.50002Z" fill="black"/>
<path d="M61.0999 6.40001C63.4999 6.40001 65.4 8.40001 65.4 10.9C65.4 12.1 64.8999 13.2 64.0999 14C63.2999 14.8 62.2 15.2 61 15.2C58.6 15.2 56.7 13.2 56.7 10.7C56.7 9.50001 57.2 8.40001 58 7.60001C58.8 6.80001 59.8999 6.30001 61.0999 6.40001ZM64.6999 10.8C64.6999 9.70001 64.2 8.70001 63.5 8.00001L63.4 7.90001L63.2999 7.80001C63.1999 7.70001 63 7.60001 62.9 7.50001C62.9 7.50001 62.7999 7.50001 62.7999 7.40001C62.6999 7.40001 62.6999 7.30001 62.5999 7.30001C62.1999 7.10001 61.7 7.00001 61.2 7.00001C59.2 7.00001 57.5 8.60001 57.5 10.6C57.5 11.1 57.5999 11.7 57.7999 12.1C57.7999 12.2 57.9 12.3 57.9 12.3C58 12.5 58.0999 12.7 58.2999 12.9C58.5999 13.3 58.8999 13.6 59.2999 13.8C59.2999 13.8 59.3 13.8 59.4 13.8C59.6 13.9 59.9 14 60.2 14.1C60.3 14.1 60.3 14.1 60.4 14.1C60.6 14.1 60.8999 14.2 61.0999 14.2C62.9999 14.5 64.5999 12.8 64.6999 10.8Z" fill="black"/>
<path d="M62.5 7.40005C62.6 7.70005 62.7001 8.00005 62.7001 8.30005C62.2001 8.00005 61.6 7.70005 61 7.70005C60.2 7.70005 59.4001 8.00005 58.9001 8.50005C58.3001 9.10005 58 9.80005 58 10.6C58 11.2 58.2 11.8 58.5 12.3C58.2 12.2 57.9 12.2 57.6 12V12.1C57.4 11.6 57.3 11.1 57.3 10.6C57.3 8.60005 59 6.90005 61 7.00005C61.6 7.10005 62.1 7.20005 62.5 7.40005Z" fill="black"/>
<path d="M62.7 8.30005C63.5 8.90005 64 9.80005 63.9 10.8C63.9 11.6 63.6 12.3 63 12.9C62.4 13.5 61.7 13.8 60.9 13.7C59.9 13.7 59 13.2 58.5 12.4C58.7 12.4 58.8 12.4 59 12.4C61 12.4 62.7 10.8 62.7 8.80005C62.8 8.70005 62.8 8.50005 62.7 8.30005Z" fill="#697900"/>
<path d="M62.7 8.30008C62.7 8.50008 62.7 8.60008 62.7 8.80008C62.7 10.8001 61 12.5001 59 12.4001C58.8 12.4001 58.7 12.4001 58.5 12.4001C58.2 11.9001 58 11.3001 58 10.7001C58 9.90008 58.3 9.20008 58.9 8.60008C59.5 8.00008 60.2 7.70008 61 7.80008C61.7 7.80008 62.3 8.00008 62.7 8.30008ZM61.7 8.90008C61.7 8.50008 61.4 8.20008 61 8.20008C60.3 8.20008 59.7 8.40008 59.2 8.90008C58.7 9.40008 58.4 10.0001 58.4 10.7001C58.4 11.1001 58.7 11.4001 59.1 11.4001C59.5 11.4001 59.8 11.1001 59.8 10.7001C59.8 10.4001 59.9 10.1001 60.2 9.90008C60.4 9.70008 60.7 9.60008 61 9.60008C61.2 9.60008 61.4 9.50008 61.5 9.40008C61.6 9.30008 61.7 9.10008 61.7 8.90008Z" fill="#859300"/>
<path d="M73.2 20.3001C73.3 20.3001 73.4 20.2001 73.5 20.2001C73.5 20.2001 73.4 20.2001 73.2 20.3001Z" fill="black"/>
<path d="M73 20.3001C73.1 20.3001 73.2 20.2001 73.3 20.2001C73.2 20.3001 73.1 20.3001 73 20.3001Z" fill="black"/>
<path d="M61.1 8.20007C61.5 8.20007 61.8 8.50007 61.8 8.90007C61.8 9.10007 61.7 9.30007 61.6 9.40007C61.5 9.50007 61.3 9.60007 61.1 9.60007C60.8 9.60007 60.5 9.70007 60.3 9.90007C60.1 10.1001 60 10.4001 59.9 10.7001C59.9 11.1001 59.6 11.4001 59.2 11.4001C58.8 11.4001 58.5 11.1001 58.5 10.7001C58.5 10.0001 58.8 9.40007 59.3 8.90007C59.8 8.40007 60.4 8.20007 61.1 8.20007Z" fill="white"/>
<path d="M72.7 20.4C72.8 20.4 72.9 20.4 73 20.3C72.9 20.4 72.8 20.4 72.7 20.4Z" fill="black"/>
<path d="M72.4001 20.5C72.5001 20.5 72.6001 20.5 72.7001 20.5C72.5001 20.4 72.5001 20.5 72.4001 20.5Z" fill="black"/>
<path d="M76.8001 25.8001C77.6001 26.5001 78.1001 27.5001 78.0001 28.6001C78.0001 30.6001 76.3001 32.3001 74.3001 32.2001C74.2001 32.2001 74.1001 32.2001 74.0001 32.2001C73.9001 32.2001 73.9001 32.2001 73.8001 32.2001C73.7001 32.2001 73.6001 32.2001 73.5001 32.1001C73.4001 32.1001 73.2001 32.0001 73.1001 32.0001C73.0001 32.0001 73.0001 32.0001 72.9001 31.9001H72.8001C72.7001 31.9001 72.7001 31.9001 72.6001 31.8001C72.1001 31.6001 71.7001 31.2001 71.4001 30.9001L71.3001 30.8001L71.2001 30.7001C71.1001 30.6001 71.1001 30.5001 71.0001 30.4001V30.3001C71.0001 30.3001 71.0001 30.3001 71.0001 30.2001C71.0001 30.2001 71.0001 30.2001 71.0001 30.1001C71.0001 30.0001 70.9001 30.0001 70.9001 29.9001C71.2001 30.0001 71.5001 30.1001 71.8001 30.2001C72.3001 31.0001 73.2001 31.5001 74.2001 31.5001C75.0001 31.5001 75.8001 31.2001 76.3001 30.7001C76.9001 30.1001 77.2001 29.4001 77.2001 28.6001C77.2001 27.6001 76.7001 26.7001 76.0001 26.1001C76.0001 25.8001 75.9001 25.5001 75.8001 25.2001C75.8001 25.2001 75.8001 25.2001 75.9001 25.2001H76.0001C76.0001 25.2001 76.0001 25.2001 76.1001 25.2001C76.1001 25.2001 76.1001 25.2001 76.2001 25.2001H76.3001C76.4001 25.3001 76.5001 25.3001 76.6001 25.4001L76.7001 25.5001C76.7001 25.7001 76.8001 25.8001 76.8001 25.8001Z" fill="black"/>
<path d="M76.7 25.7001L76.8 25.8001L76.7 25.7001Z" fill="black"/>
<path d="M76.5 25.6001L76.6 25.7001C76.6 25.7001 76.6 25.6001 76.5 25.6001Z" fill="black"/>
<path d="M75.9 25.2C76 25.5 76.1 25.8 76.1 26.1C75.6 25.8 75 25.5 74.4 25.5C73.6 25.5 72.8 25.8 72.3 26.3C71.7 26.9 71.4 27.6 71.4 28.4C71.4 29 71.6 29.6 71.9 30.1C71.6 30 71.3 30 71 29.8C70.8 29.4 70.7 28.9 70.7 28.3C70.7 26.3 72.4 24.6 74.4 24.7C74.9 24.9 75.4 25 75.9 25.2Z" fill="black"/>
<path d="M74.4 24.2001C76.8 24.2001 78.7 26.2001 78.7 28.7001C78.7 29.9001 78.2 31.0001 77.4 31.8001C76.6 32.6001 75.5 33.0001 74.3 33.0001C71.9 33.0001 70 31.0001 70 28.5001C70 27.3001 70.5 26.2001 71.3 25.4001C72.2 24.6001 73.3 24.2001 74.4 24.2001ZM78 28.6001C78 27.5001 77.5 26.5001 76.8 25.8001L76.7 25.7001L76.6 25.6001C76.5 25.5001 76.4 25.5001 76.3 25.4001H76.2C76.2 25.4001 76.2 25.4001 76.1 25.4001C76.1 25.4001 76.1 25.4001 76 25.4001H75.9C75.9 25.4001 75.9 25.4001 75.8 25.4001C75.4 25.2001 74.9 25.1001 74.4 25.1001C72.4 25.1001 70.7 26.7001 70.7 28.7001C70.7 29.2001 70.8 29.7001 71 30.2001C71 30.3001 71.1 30.3001 71.1 30.4001C71.1 30.4001 71.1 30.4001 71.1 30.5001C71.1 30.5001 71.1 30.5001 71.1 30.6001V30.7001C71.2 30.8001 71.2 30.9001 71.3 31.0001L71.4 31.1001L71.5 31.2001C71.8 31.6001 72.2 31.9001 72.7 32.1001C72.8 32.1001 72.8 32.2001 72.9 32.2001H73C73.1 32.2001 73.1 32.2001 73.2 32.3001C73.3 32.4001 73.5 32.4001 73.6 32.4001C73.7 32.4001 73.8 32.4001 73.9 32.5001C74 32.5001 74 32.5001 74.1 32.5001C74.2 32.5001 74.3 32.5001 74.4 32.5001C76.3 32.3001 78 30.7001 78 28.6001Z" fill="black"/>
<path d="M76.1001 26.1001C76.9001 26.7001 77.4001 27.6001 77.3001 28.6001C77.3001 29.4001 77.0001 30.1001 76.4001 30.7001C75.8001 31.3001 75.1001 31.6001 74.3001 31.5001C73.3001 31.5001 72.4001 31.0001 71.9001 30.2001C72.1001 30.2001 72.2001 30.2001 72.4001 30.2001C74.4001 30.2001 76.1001 28.6001 76.1001 26.6001C76.1001 26.5001 76.1001 26.3001 76.1001 26.1001Z" fill="#B6006F"/>
<path d="M68.6001 18.3C68.6001 18.4 68.7001 18.5 68.7001 18.5C68.7001 18.4 68.6001 18.3 68.6001 18.3Z" fill="black"/>
<path d="M69.1 19.1C69 18.9 68.8 18.7 68.7 18.5C68.8 18.7 68.9 18.9 69.1 19.1Z" fill="black"/>
<path d="M69.1001 19.1001C69.4001 19.5001 69.7001 19.8001 70.1001 20.0001C69.7001 19.8001 69.4001 19.5001 69.1001 19.1001Z" fill="black"/>
<path d="M76.1001 26.1C76.1001 26.3 76.1001 26.4 76.1001 26.6C76.1001 28.6 74.4001 30.3 72.4001 30.2C72.2001 30.2 72.1001 30.2 71.9001 30.2C71.6001 29.7 71.4001 29.1 71.4001 28.5C71.4001 27.7 71.7001 27 72.3001 26.4C72.9001 25.8 73.6001 25.5 74.4001 25.6C75.0001 25.6 75.6001 25.8 76.1001 26.1ZM75.1001 26.7C75.1001 26.3 74.8001 26 74.4001 26C73.7001 26 73.1001 26.2 72.6001 26.7C72.1001 27.2 71.8001 27.8 71.8001 28.5C71.8001 28.9 72.1001 29.2 72.5001 29.2C72.9001 29.2 73.2001 28.9 73.2001 28.5C73.2001 28.2 73.3001 27.9 73.6001 27.7C73.8001 27.5 74.1001 27.4 74.4001 27.4C74.6001 27.4 74.8001 27.3 74.9001 27.2C75.0001 27.1 75.1001 26.9 75.1001 26.7Z" fill="#EF0083"/>
<path d="M74.4 26C74.8 26 75.1 26.3 75.1 26.7C75.1 26.9 75 27.1 74.9 27.2C74.8 27.3 74.6 27.4 74.4 27.4C74.1 27.4 73.8 27.5 73.6 27.7C73.4 27.9 73.3 28.2 73.2 28.5C73.2 28.9 72.9 29.2 72.5 29.2C72.1 29.2 71.8 28.9 71.8 28.5C71.8 27.8 72.1 27.2 72.6 26.7C73.1 26.3 73.7 26 74.4 26Z" fill="white"/>
<path d="M57.6001 12.2001C57.6001 12.3001 57.7001 12.4001 57.7001 12.4001C57.7001 12.4001 57.7001 12.3001 57.6001 12.2001Z" fill="black"/>
<path d="M58.0999 13C57.9999 12.8 57.8 12.6 57.7 12.4C57.8 12.6 57.9999 12.8 58.0999 13Z" fill="black"/>
<path d="M58.1001 13C58.4001 13.4 58.7001 13.7 59.1001 13.9C58.8001 13.7 58.4001 13.4 58.1001 13Z" fill="black"/>
<path d="M60.9 17.8C62.9 17.8 64.5 19.5 64.4 21.5C64.4 22.5 64 23.4 63.3 24C62.6 24.7 61.7 25 60.7 25C58.7 25 57.1 23.3 57.2 21.3C57.2 20.3 57.6 19.4 58.3 18.8C59 18.1 59.9 17.7 60.9 17.8ZM63.7 21.4C63.7 19.8 62.5 18.5 60.9 18.5C59.3 18.5 58 19.7 58 21.3C58 22.9 59.2 24.2 60.8 24.2C62.4 24.3 63.7 23 63.7 21.4Z" fill="black"/>
<path d="M60.9 18.4C62.5 18.4 63.8 19.7 63.7 21.3C63.7 22.9 62.4 24.2 60.8 24.1C59.2 24.1 57.9 22.8 58 21.2C57.9 19.7 59.3 18.4 60.9 18.4ZM63 21.4C63 20.2 62 19.2 60.8 19.2C60.2 19.2 59.7 19.4 59.2 19.8C58.7 20.2 58.5 20.8 58.5 21.3C58.5 22.5 59.5 23.5 60.7 23.5C61.3 23.5 61.8 23.3 62.3 22.9C62.8 22.5 63 22 63 21.4Z" fill="black"/>
<path d="M73.5 32.2001C73.6 32.2001 73.7 32.2001 73.8 32.3001C73.7 32.2001 73.6 32.2001 73.5 32.2001Z" fill="black"/>
<path d="M72.9001 32C73.0001 32 73.0001 32 73.1001 32.1C73.1001 32 73.0001 32 72.9001 32Z" fill="black"/>
<path d="M72.7 31.9C72.8 31.9 72.8 32 72.9 32C72.8 31.9 72.7 31.9 72.7 31.9Z" fill="black"/>
<path d="M71.4 30.8001L71.3 30.7001C71.3 30.7001 71.4 30.7001 71.4 30.8001Z" fill="black"/>
<path d="M71.4001 30.8L71.5001 30.9L71.4001 30.8Z" fill="black"/>
<path d="M52.3 13.6001C53.1 14.3001 53.6 15.3001 53.5 16.4001C53.5 18.4001 51.8 20.1001 49.8 20.0001C48.7 20.0001 47.7 19.5001 47 18.7001L46.9 18.6001C46.9 18.5001 46.8 18.5001 46.8 18.4001C46.8 18.4001 46.8 18.4001 46.8 18.3001C46.8 18.3001 46.8 18.2001 46.7 18.2001L46.6 18.1001C46.6 18.0001 46.5 17.9001 46.5 17.9001C46.5 17.9001 46.5 17.9001 46.5 17.8001C46.8 17.9001 47.1 18.0001 47.4 18.1001C47.9 18.9001 48.8 19.4001 49.8 19.4001C50.6 19.4001 51.4 19.1001 51.9 18.6001C52.5 18.0001 52.8 17.3001 52.8 16.5001C52.8 15.5001 52.3 14.6001 51.6 14.0001C51.6 13.7001 51.5 13.4001 51.4 13.1001C51.4 13.1001 51.4 13.1001 51.5 13.1001C51.6 13.1001 51.7 13.2001 51.7 13.2001L51.8 13.3001C51.8 13.3001 51.9 13.3001 51.9 13.4001C51.9 13.4001 51.9 13.4001 52 13.4001C52.1 13.4001 52.1 13.5001 52.2 13.5001C52.2 13.6001 52.2 13.6001 52.3 13.6001Z" fill="black"/>
<path d="M52.2 13.5L52.2999 13.6C52.1999 13.6 52.2 13.6 52.2 13.5Z" fill="black"/>
<path d="M51.9001 13.4C52.0001 13.4 52.0001 13.5 52.1001 13.5C52.1001 13.5 52.0001 13.4 51.9001 13.4Z" fill="black"/>
<path d="M51.7999 13.3001L51.7 13.2001C51.7 13.2001 51.6999 13.2001 51.7999 13.3001Z" fill="black"/>
<path d="M51.6001 13.2001C51.5001 13.2001 51.5001 13.1001 51.4001 13.1001C51.5001 13.1001 51.6001 13.1001 51.6001 13.2001Z" fill="black"/>
<path d="M49.9 12C52.3 12 54.2 14 54.2 16.5C54.2 17.7 53.7 18.8 52.9 19.6C52.1 20.4 51 20.8 49.8 20.8C47.4 20.8 45.5 18.8 45.5 16.3C45.5 15.1 46 14 46.8 13.2C47.6 12.4 48.7 12 49.9 12ZM53.5 16.5C53.5 15.4 53 14.4 52.3 13.7L52.2 13.6C52.1 13.5 52.1 13.5 52 13.5C52 13.5 52 13.5 51.9 13.5C51.9 13.5 51.8 13.5 51.8 13.4L51.7 13.3C51.6 13.3 51.6 13.2 51.5 13.2C51.5 13.2 51.5 13.2 51.4 13.2C51 13 50.5 12.9 50 12.9C48 12.9 46.3 14.5 46.3 16.5C46.3 17 46.4 17.5 46.6 18C46.6 18 46.6 18 46.6 18.1C46.6 18.2 46.7 18.3 46.7 18.3L46.8 18.4C46.8 18.4 46.8 18.5 46.9 18.5C46.9 18.5 46.9 18.5 46.9 18.6C46.9 18.7 47 18.7 47 18.8L47.1 18.9C47.8 19.7 48.8 20.2 49.9 20.2C51.8 20.1 53.5 18.5 53.5 16.5Z" fill="black"/>
<path d="M51.3001 13C51.4001 13.3 51.5001 13.6 51.5001 13.9C51.0001 13.6 50.4001 13.3 49.8001 13.3C49.0001 13.3 48.2001 13.6 47.7001 14.1C47.2001 14.6 46.8001 15.4 46.8001 16.2C46.8001 16.8 47.0001 17.4 47.3001 17.9C47.0001 17.8 46.7001 17.8 46.4001 17.6C46.2001 17.2 46.1001 16.7 46.1001 16.1C46.1001 14.1 47.8001 12.4 49.8001 12.5C50.4001 12.7 50.9001 12.8 51.3001 13Z" fill="black"/>
<path d="M51.6001 14C52.4001 14.6 52.9001 15.5 52.8001 16.5C52.8001 17.3 52.5001 18 51.9001 18.6C51.3001 19.2 50.6001 19.5 49.8001 19.4C48.8001 19.4 47.9001 18.9 47.4001 18.1C47.6001 18.1 47.7001 18.1 47.9001 18.1C49.9001 18.1 51.6001 16.5 51.6001 14.5C51.6001 14.3 51.6001 14.1 51.6001 14Z" fill="#CC0000"/>
<path d="M51.6001 14.0001C51.6001 14.2001 51.6001 14.3001 51.6001 14.5001C51.6001 16.5001 49.9001 18.2001 47.9001 18.1001C47.7001 18.1001 47.6001 18.1001 47.4001 18.1001C47.1001 17.6001 46.9001 17.0001 46.9001 16.4001C46.9001 15.6001 47.2001 14.9001 47.8001 14.3001C48.4001 13.7001 49.1001 13.4001 49.9001 13.5001C50.5001 13.4001 51.1001 13.6001 51.6001 14.0001ZM50.6001 14.6001C50.6001 14.2001 50.3001 13.9001 49.9001 13.9001C49.2001 13.9001 48.6001 14.1001 48.1001 14.6001C47.6001 15.1001 47.3001 15.7001 47.3001 16.4001C47.3001 16.8001 47.6001 17.1001 48.0001 17.1001C48.4001 17.1001 48.7001 16.8001 48.7001 16.4001C48.7001 16.1001 48.8001 15.8001 49.1001 15.6001C49.3001 15.4001 49.6001 15.3001 49.9001 15.3001C50.1001 15.3001 50.3001 15.2001 50.4001 15.1001C50.5001 14.9001 50.6001 14.8001 50.6001 14.6001Z" fill="#FF5200"/>
<path d="M49.9001 13.9C50.3001 13.9 50.6 14.2 50.6 14.6C50.6 14.8 50.5001 15 50.4001 15.1C50.3001 15.2 50.1001 15.3 49.9001 15.3C49.6001 15.3 49.3 15.4 49.1 15.6C48.9 15.8 48.8001 16.1 48.7001 16.4C48.7001 16.8 48.4 17.1 48 17.1C47.6 17.1 47.3 16.8 47.3 16.4C47.3 15.7 47.6 15.1 48.1 14.6C48.6 14.1 49.2001 13.9 49.9001 13.9Z" fill="white"/>
<path d="M46.6 18.1C46.6 18 46.5 17.9 46.5 17.9C46.5 17.9 46.5 18 46.6 18.1Z" fill="black"/>
<path d="M46.6 18.2001L46.5 18.1001C46.6 18.1001 46.6 18.2001 46.6 18.2001Z" fill="black"/>
<path d="M46.9001 18.6C46.9001 18.5 46.8 18.5 46.8 18.4C46.8 18.5 46.8001 18.5 46.9001 18.6Z" fill="black"/>
<path d="M46.9001 18.6001C46.9001 18.7001 46.9001 18.7001 46.9001 18.6001C47.0001 18.7001 46.9001 18.7001 46.9001 18.6001Z" fill="black"/>
<path d="M51.4 26C52.2 26.7 52.6999 27.7 52.5999 28.8C52.5999 30.8 50.9 32.5 48.9 32.4C48.5 32.4 47.9999 32.3 47.5999 32.2C47.4999 32.2 47.4 32.1 47.4 32.1C47.3 32.1 47.3 32 47.2 32C46.8 31.8 46.3999 31.5 46.0999 31.1C46.0999 31.1 46.1 31.1 46 31L45.9 30.9C45.9 30.8 45.7999 30.8 45.7999 30.7C45.7999 30.7 45.7999 30.7 45.7999 30.6V30.5C45.7999 30.4 45.7 30.4 45.7 30.3V30.2V30.1C46 30.2 46.2999 30.3 46.5999 30.4C47.0999 31.2 48 31.7 49 31.7C49.8 31.7 50.5999 31.4 51.0999 30.9C51.6999 30.3 52 29.6 52 28.8C52 27.8 51.4999 26.9 50.7999 26.3C50.7999 26 50.6999 25.7 50.5999 25.4C50.6999 25.4 50.6999 25.5 50.7999 25.5C50.7999 25.5 50.9 25.5 50.9 25.6C51 25.7 51.1999 25.8 51.2999 25.9L51.4 26C51.4 26 51.3 25.9 51.4 26Z" fill="black"/>
<path d="M51.3 25.9L51.4001 26L51.3 25.9Z" fill="black"/>
<path d="M51.1001 25.8L51.2001 25.9C51.2001 25.9 51.2001 25.8 51.1001 25.8Z" fill="black"/>
<path d="M50.7001 25.5C50.7001 25.5 50.6001 25.5 50.6001 25.4C50.7001 25.5 50.7001 25.5 50.7001 25.5Z" fill="black"/>
<path d="M49.0001 24.4C51.4001 24.4 53.3001 26.4 53.3001 28.9C53.3001 30.1 52.8001 31.2 52.0001 32C51.2001 32.8 50.1001 33.2 48.9001 33.2C46.5001 33.2 44.6001 31.2 44.6001 28.7C44.6001 27.5 45.1001 26.4 45.9001 25.6C46.8001 24.8 47.9001 24.4 49.0001 24.4ZM52.6001 28.8C52.6001 27.7 52.1001 26.7 51.4001 26L51.3001 25.9L51.2001 25.8C51.1001 25.7 50.9001 25.6 50.8001 25.5C50.8001 25.5 50.7001 25.5 50.7001 25.4C50.6001 25.4 50.6001 25.3 50.5001 25.3C50.1001 25.1 49.6001 25 49.1001 25C47.1001 25 45.4001 26.6 45.4001 28.6C45.4001 29.1 45.5001 29.7 45.7001 30.1V30.2C45.7001 30.3 45.8001 30.3 45.8001 30.4V30.5C45.8001 30.5 45.8001 30.5 45.8001 30.6C45.8001 30.7 45.9001 30.8 45.9001 30.8L46.0001 30.9C46.0001 30.9 46.0001 30.9 46.1001 31C46.4001 31.4 46.8001 31.7 47.2001 31.9C47.3001 31.9 47.3001 32 47.4001 32C47.5001 32 47.6001 32.1 47.6001 32.1C48.0001 32.3 48.4001 32.3 48.9001 32.3C50.9001 32.5 52.6001 30.9 52.6001 28.8Z" fill="black"/>
<path d="M50.5 25.4C50.6 25.7 50.7001 26 50.7001 26.3C50.2001 26 49.6 25.7 49 25.7C48.2 25.7 47.4001 26 46.9001 26.5C46.3001 27.1 46 27.8 46 28.6C46 29.2 46.2 29.8 46.5 30.3C46.2 30.2 45.9 30.2 45.6 30V30.1C45.4 29.6 45.3 29.1 45.3 28.6C45.3 26.6 47 24.9 49 25C49.5 25.1 50 25.2 50.5 25.4Z" fill="black"/>
<path d="M50.7 26.3C51.5 26.9 52 27.8 51.9 28.8C51.9 29.6 51.6 30.3 51 30.9C50.4 31.5 49.7 31.8001 48.9 31.7001C47.9 31.7001 47 31.2 46.5 30.4C46.7 30.4 46.8 30.4 47 30.4C49 30.4 50.7 28.8 50.7 26.8C50.7 26.7 50.7 26.5 50.7 26.3Z" fill="#FFA800"/>
<path d="M50.7 26.3001C50.7 26.5001 50.7 26.6001 50.7 26.8001C50.7 28.8001 49 30.5001 47 30.4001C46.8 30.4001 46.7 30.4001 46.5 30.4001C46.2 29.9001 46 29.3001 46 28.7001C46 27.9001 46.3 27.2001 46.9 26.6001C47.5 26.0001 48.2 25.7001 49 25.8001C49.6 25.8001 50.2 26.0001 50.7 26.3001ZM49.7 26.9001C49.7 26.5001 49.4 26.2001 49 26.2001C48.3 26.2001 47.7 26.4001 47.2 26.9001C46.7 27.4001 46.4 28.0001 46.4 28.7001C46.4 29.1001 46.7 29.4001 47.1 29.4001C47.5 29.4001 47.8 29.1001 47.8 28.7001C47.8 28.4001 47.9 28.1001 48.2 27.9001C48.4 27.7001 48.7 27.6001 49 27.6001C49.2 27.6001 49.4 27.5001 49.5 27.4001C49.6 27.3001 49.7 27.1001 49.7 26.9001Z" fill="#FFC02C"/>
<path d="M49.0001 26.2001C49.4001 26.2001 49.7001 26.5001 49.7001 26.9001C49.7001 27.1001 49.6001 27.3001 49.5001 27.4001C49.4001 27.5001 49.2001 27.6001 49.0001 27.6001C48.7001 27.6001 48.4001 27.7001 48.2001 27.9001C48.0001 28.1001 47.9001 28.4001 47.8001 28.7001C47.8001 29.1001 47.5001 29.4001 47.1001 29.4001C46.7001 29.4001 46.4001 29.1001 46.4001 28.7001C46.4001 28.0001 46.7001 27.4001 47.2001 26.9001C47.7001 26.5001 48.3001 26.2001 49.0001 26.2001Z" fill="white"/>
<path d="M47.4001 32.1001C47.5001 32.1001 47.6001 32.2001 47.6001 32.2001C47.5001 32.2001 47.5001 32.1001 47.4001 32.1001Z" fill="black"/>
<path d="M47.2 32C47.3 32 47.3 32.1 47.4 32.1C47.3 32.1 47.3 32 47.2 32Z" fill="black"/>
<path d="M45.6001 30.3C45.6001 30.4 45.7001 30.4 45.7001 30.5C45.7001 30.4 45.6001 30.3 45.6001 30.3Z" fill="black"/>
<path d="M45.7 30.5C45.7 30.6 45.8 30.6 45.7 30.5C45.8 30.6 45.7 30.6 45.7 30.5Z" fill="black"/>
<path d="M46.0001 31L45.9001 30.9C45.9001 30.9 46.0001 30.9 46.0001 31Z" fill="black"/>
</g>
<defs>
<clipPath id="clip0">
<rect width="87.2" height="46.5" fill="white"/>
</clipPath>
</defs>
</svg>
