<svg width="286" height="28" viewBox="0 0 286 28" fill="none" xmlns="http://www.w3.org/2000/svg">
<path d="M3.54736 14.4516C3.54736 21.7376 9.11323 26.7355 15.9024 26.7355C18.3489 26.7355 19.878 26.0129 21.8352 25.1699C21.8352 23.9656 21.8352 18.9678 21.8352 18.9678C20.245 19.9914 18.5936 20.8946 16.2693 20.8946C12.5384 20.8946 9.72487 18.3656 9.72487 14.5721C9.72487 10.5376 11.9267 7.58711 15.9635 7.58711C18.8994 7.58711 20.4285 8.49034 21.8964 9.63442C21.8964 6.86453 21.8964 3.19141 21.8964 3.19141C19.6945 1.98711 18.1654 1.68604 15.6577 1.68604C8.74625 1.68604 3.54736 6.86453 3.54736 14.4516Z" fill="#1D1D1B"/>
<path d="M39.8784 1.50537C32.7223 1.50537 26.8506 6.62365 26.8506 14.2107C26.8506 21.4968 32.233 26.9763 39.8172 26.9763C47.0345 26.9763 52.845 21.6774 52.845 14.0301C52.9062 6.98494 47.2792 1.50537 39.8784 1.50537ZM39.8172 21.1957C35.8416 21.1957 33.0892 18.3656 33.0892 14.3312C33.0892 10.2968 35.9028 7.34623 39.8784 7.34623C43.7928 7.34623 46.6675 10.2968 46.6675 14.1505C46.6675 18.2452 43.854 21.1957 39.8172 21.1957Z" fill="#1D1D1B"/>
<path d="M76.1485 2.40857L71.2554 15.3548L66.24 2.40857H60.246L56.5762 26.0731H62.8148L64.4662 12.4043L69.7263 26.0731H72.6621L77.9834 12.4645L79.8183 26.0731H86.1181L82.3871 2.40857H76.1485Z" fill="#1D1D1B"/>
<path d="M108.687 2.40857L103.733 15.3548L98.7786 2.40857H92.7845L89.1147 26.0731H95.2923L96.9437 12.4043L102.265 26.0731H105.14L110.522 12.4645L112.357 26.0731H118.657L114.865 2.40857H108.687Z" fill="#1D1D1B"/>
<path d="M138.351 17.2215C138.351 19.9914 136.394 21.1957 134.192 21.1957C131.868 21.1957 129.972 20.0516 129.972 16.9204C129.972 12.1032 129.972 2.34839 129.972 2.34839H123.794C123.794 2.34839 123.794 12.7054 123.794 18.1849C123.794 24.0258 128.871 26.7355 134.07 26.7355C140.92 26.7355 144.59 22.9419 144.59 17.5226C144.59 12.2237 144.59 2.34839 144.59 2.34839H138.351C138.351 7.22581 138.351 12.4645 138.351 17.2215Z" fill="#1D1D1B"/>
<path d="M168.872 16.4387L157.863 2.40857H151.685V26.0731H157.863V11.9225L168.688 26.0731H174.805V2.40857H168.872V16.4387Z" fill="#1D1D1B"/>
<path d="M188.138 2.40857H181.961V26.1333H188.138V2.40857Z" fill="#1D1D1B"/>
<path d="M193.949 14.4516C193.949 21.7376 199.515 26.7355 206.304 26.7355C208.751 26.7355 210.28 26.0129 212.237 25.1699C212.237 23.9656 212.237 18.9678 212.237 18.9678C210.647 19.9914 208.995 20.8946 206.671 20.8946C202.94 20.8946 200.127 18.3656 200.127 14.5721C200.127 10.5376 202.329 7.58711 206.365 7.58711C209.301 7.58711 210.83 8.49034 212.298 9.63442C212.298 6.86453 212.298 3.19141 212.298 3.19141C210.096 1.98711 208.567 1.68604 206.06 1.68604C199.148 1.68604 193.949 6.86453 193.949 14.4516Z" fill="#1D1D1B"/>
<path d="M262.758 9.81502C262.758 4.75696 258.905 2.40857 254.684 2.40857C253.4 2.40857 245.265 2.40857 245.265 2.40857V26.1333H251.443V17.7634H252.666C253.339 18.8473 257.62 26.1333 257.62 26.1333H264.96C264.96 26.1333 259.272 17.2215 258.66 16.3182C261.351 15.2946 262.758 13.0666 262.758 9.81502ZM253.278 13.0666H251.32V7.10534H253.339C255.357 7.10534 256.458 8.06878 256.458 10.0559C256.458 12.3441 254.99 13.0666 253.278 13.0666Z" fill="#1D1D1B"/>
<path d="M267.345 2.40857V8.06878H272.177V26.1333H278.599V8.06878H283.431V2.40857H267.345Z" fill="#1D1D1B"/>
<path d="M228.996 1.38499C232.543 1.4452 235.907 2.89036 238.354 5.4194C240.8 7.94843 242.146 11.2603 242.085 14.8129C242.024 17.1011 241.412 19.3291 240.189 21.3162C239.577 22.3398 238.843 23.243 237.987 24.0861C237.253 24.8086 236.397 25.4108 235.54 25.9527C234.684 26.4344 233.705 26.4344 232.849 25.9527C231.993 25.471 231.504 24.5678 231.504 23.6043L231.565 20.1721C231.565 18.5463 230.28 17.2215 228.69 17.2215C227.895 17.2215 227.161 17.5226 226.611 18.0646C226.06 18.6065 225.693 19.3291 225.693 20.1119L225.632 23.5441C225.632 24.5076 225.081 25.3506 224.225 25.8323C223.369 26.314 222.329 26.2538 221.534 25.7119C219.638 24.5076 218.109 22.8818 217.008 20.9549C215.907 18.9678 215.356 16.6796 215.356 14.3914C215.418 10.899 216.886 7.58714 219.454 5.17854C222.023 2.58929 225.448 1.32477 228.996 1.38499ZM241.718 14.7527C241.84 7.70757 236.152 1.92692 228.996 1.74628C221.84 1.62585 215.907 7.22585 215.785 14.271C215.723 18.8474 218.048 22.942 221.717 25.2301C223.185 26.1936 225.143 25.1699 225.204 23.4237L225.265 19.9914C225.326 18.1248 226.855 16.6796 228.69 16.7398C229.608 16.7398 230.464 17.1613 231.075 17.7635C231.687 18.3656 232.054 19.2086 231.993 20.1119L231.932 23.5441C231.871 25.2904 233.828 26.3742 235.296 25.5312C239.088 23.3635 241.596 19.3893 241.718 14.7527Z" fill="black"/>
<path d="M236.519 8.43019C237.008 8.8517 237.314 9.45385 237.253 10.1162C237.253 10.2366 237.253 10.2969 237.253 10.4173C237.253 10.4775 237.253 10.5377 237.253 10.5979V10.6581C237.253 10.7184 237.253 10.7786 237.192 10.8388C237.192 10.899 237.13 10.9592 237.13 11.0194C237.13 11.0797 237.069 11.1399 237.008 11.2001C236.763 11.6216 236.458 11.9227 236.029 12.1635C235.968 12.2237 235.907 12.2237 235.846 12.2237C235.785 12.2237 235.724 12.284 235.662 12.284C235.601 12.284 235.54 12.284 235.479 12.3442H235.418C235.357 12.3442 235.296 12.3442 235.234 12.3442C235.112 12.3442 235.051 12.3442 234.929 12.3442C234.806 12.3442 234.623 12.3442 234.5 12.284C234.439 12.284 234.439 12.284 234.378 12.284C234.195 12.2237 234.072 12.1635 233.889 12.1033C233.889 12.1033 233.889 12.1033 233.828 12.1033C233.583 11.9829 233.338 11.8022 233.216 11.5614C233.155 11.4409 233.032 11.3205 232.971 11.2001C232.971 11.1399 232.91 11.0797 232.91 11.0797V11.0194C233.094 11.0797 233.277 11.1399 233.461 11.2001C233.766 11.6818 234.317 11.9829 234.929 11.9829C235.418 11.9829 235.907 11.8022 236.213 11.5012C236.519 11.2001 236.763 10.7184 236.763 10.2366C236.763 9.63449 236.458 9.09256 236.029 8.73127C236.029 8.55062 235.968 8.36998 235.907 8.18933C235.907 8.18933 235.907 8.18933 235.968 8.18933C236.029 8.18933 236.091 8.24955 236.091 8.24955L236.152 8.30976C236.152 8.30976 236.213 8.30976 236.213 8.36998C236.213 8.36998 236.213 8.36998 236.274 8.36998C236.335 8.36998 236.335 8.43019 236.396 8.43019C236.458 8.43019 236.519 8.43019 236.519 8.43019Z" fill="black"/>
<path d="M236.458 8.37L236.519 8.43021C236.519 8.43021 236.458 8.43021 236.458 8.37Z" fill="black"/>
<path d="M236.335 8.30969C236.397 8.30969 236.397 8.36991 236.458 8.36991C236.397 8.36991 236.335 8.30969 236.335 8.30969Z" fill="black"/>
<path d="M236.213 8.24955L236.152 8.18933C236.152 8.18933 236.213 8.24955 236.213 8.24955Z" fill="black"/>
<path d="M236.152 8.18924C236.091 8.18924 236.091 8.12903 236.03 8.12903C236.03 8.12903 236.091 8.18924 236.152 8.18924Z" fill="black"/>
<path d="M235.051 7.46667C236.519 7.46667 237.681 8.67098 237.681 10.1764C237.681 10.8989 237.375 11.5613 236.886 12.043C236.397 12.5247 235.724 12.7656 234.99 12.7656C233.522 12.7656 232.36 11.5613 232.36 10.0559C232.36 9.33334 232.666 8.67098 233.155 8.18926C233.705 7.70754 234.378 7.46667 235.051 7.46667ZM237.253 10.1764C237.253 9.51399 236.947 8.91184 236.519 8.49033L236.458 8.43012C236.397 8.3699 236.397 8.3699 236.335 8.3699C236.335 8.3699 236.335 8.3699 236.274 8.3699C236.274 8.3699 236.213 8.3699 236.213 8.30969L236.152 8.24947C236.091 8.24947 236.091 8.18926 236.03 8.18926C236.03 8.18926 236.03 8.18926 235.969 8.18926C235.724 8.06883 235.418 8.00861 235.112 8.00861C233.889 8.00861 232.849 8.97205 232.849 10.1764C232.849 10.4774 232.91 10.8387 233.033 11.0796C233.033 11.1398 233.094 11.2 233.094 11.2C233.155 11.3204 233.216 11.4409 233.338 11.5613C233.522 11.8022 233.705 11.9828 233.95 12.1032C233.95 12.1032 233.95 12.1032 234.011 12.1032C234.134 12.1634 234.317 12.2237 234.501 12.2839C234.562 12.2839 234.562 12.2839 234.623 12.2839C234.745 12.2839 234.929 12.3441 235.051 12.3441C235.173 12.3441 235.235 12.3441 235.357 12.3441C235.418 12.3441 235.479 12.3441 235.54 12.3441H235.602C235.663 12.3441 235.724 12.3441 235.785 12.2839C235.846 12.2839 235.907 12.2237 235.969 12.2237C236.03 12.2237 236.091 12.1634 236.152 12.1634C236.58 11.9828 236.947 11.6215 237.131 11.2C237.192 11.1398 237.192 11.0796 237.253 11.0194C237.253 10.9591 237.314 10.8989 237.314 10.8387C237.314 10.7785 237.375 10.7183 237.375 10.6581V10.5979C237.375 10.5376 237.375 10.4774 237.375 10.4172C237.253 10.357 237.253 10.2366 237.253 10.1764Z" fill="black"/>
<path d="M235.969 8.06883C236.03 8.24947 236.091 8.43012 236.091 8.61076C235.785 8.43012 235.418 8.24947 235.051 8.24947C234.562 8.24947 234.073 8.43012 233.767 8.73119C233.4 9.09248 233.216 9.51399 233.216 9.99571C233.216 10.357 233.339 10.7183 233.522 11.0194C233.339 10.9592 233.155 10.9592 232.972 10.8387V10.8989C232.849 10.5979 232.788 10.2968 232.788 9.99571C232.788 8.79141 233.828 7.76775 235.051 7.82797C235.357 7.88818 235.663 7.9484 235.969 8.06883Z" fill="black"/>
<path d="M236.091 8.67102C236.58 9.03231 236.886 9.57425 236.825 10.1764C236.825 10.6581 236.641 11.0796 236.274 11.4409C235.907 11.8022 235.479 11.9828 234.99 11.9226C234.378 11.9226 233.828 11.6216 233.522 11.1398C233.644 11.1398 233.705 11.1398 233.828 11.1398C235.051 11.1398 236.091 10.1764 236.091 8.9721C236.091 8.85167 236.091 8.73124 236.091 8.67102Z" fill="#87A1FF"/>
<path d="M228.996 1.80645C236.152 1.92688 241.84 7.76774 241.718 14.8129C241.657 19.3892 239.088 23.3634 235.357 25.5312C233.828 26.4344 231.932 25.2903 231.993 23.5441L232.054 20.1118C232.054 19.2086 231.687 18.3656 231.137 17.7634C230.525 17.1613 229.669 16.7398 228.751 16.7398C226.855 16.6796 225.326 18.1849 225.326 19.9914L225.265 23.4237C225.204 25.1699 223.247 26.1936 221.779 25.2301C218.109 22.9419 215.785 18.8473 215.846 14.271C215.907 7.28602 221.84 1.62581 228.996 1.80645ZM241.29 14.7527C241.412 7.94839 235.908 2.34839 228.996 2.16774C225.632 2.10753 222.513 3.31183 220.066 5.6C217.681 7.88817 216.274 10.9591 216.213 14.2108C216.152 18.486 218.292 22.4602 221.962 24.8086C222.513 25.1699 223.247 25.1699 223.797 24.8688C224.409 24.5677 224.776 23.9656 224.776 23.3032L224.837 19.871C224.837 18.8473 225.265 17.9441 225.999 17.2215C226.733 16.4989 227.712 16.1376 228.69 16.1979C230.77 16.2581 232.482 17.9441 232.421 19.9914L232.36 23.4237C232.36 24.086 232.666 24.6882 233.277 25.0495C233.828 25.3505 234.562 25.3505 235.112 25.0495C238.905 22.9419 241.168 19.0882 241.29 14.7527Z" fill="black"/>
<path d="M236.091 8.67103C236.091 8.79146 236.091 8.85168 236.091 8.97211C236.091 10.1764 235.051 11.2001 233.828 11.1399C233.706 11.1399 233.644 11.1399 233.522 11.1399C233.339 10.8388 233.216 10.4775 233.216 10.1162C233.216 9.63447 233.4 9.21297 233.767 8.85168C234.134 8.49039 234.562 8.30974 235.051 8.36996C235.418 8.30974 235.785 8.43017 236.091 8.67103ZM235.479 9.03232C235.479 8.79146 235.296 8.61082 235.051 8.61082C234.623 8.61082 234.256 8.73125 233.95 9.03232C233.644 9.3334 233.461 9.69469 233.461 10.1162C233.461 10.3571 233.644 10.5377 233.889 10.5377C234.134 10.5377 234.317 10.3571 234.317 10.1162C234.317 9.93555 234.378 9.75491 234.562 9.63448C234.745 9.51405 234.868 9.45383 235.051 9.45383C235.174 9.45383 235.296 9.39362 235.357 9.3334C235.418 9.21297 235.479 9.15275 235.479 9.03232Z" fill="#9CC4FF"/>
<path d="M228.996 2.22798C235.907 2.34841 241.412 8.00863 241.29 14.8129C241.228 19.1484 238.904 23.0022 235.173 25.2301C234.623 25.5914 233.889 25.5914 233.338 25.2301C232.727 24.8688 232.421 24.3269 232.421 23.6043L232.482 20.1721C232.543 18.1248 230.831 16.3785 228.751 16.3785C227.711 16.3785 226.794 16.7398 226.06 17.4022C225.326 18.1248 224.898 19.028 224.898 20.0516L224.837 23.4839C224.837 24.1463 224.47 24.7484 223.858 25.0495C223.246 25.3506 222.574 25.3506 222.023 24.9893C218.353 22.6409 216.213 18.6667 216.274 14.3914C216.335 11.1398 217.68 8.06884 220.127 5.78067C222.451 3.37207 225.632 2.16777 228.996 2.22798ZM237.681 10.1764C237.681 8.73121 236.519 7.52691 235.051 7.46669C234.317 7.46669 233.644 7.70755 233.155 8.18927C232.666 8.67099 232.36 9.33336 232.36 10.0559C232.36 11.5011 233.522 12.7054 234.99 12.7656C235.724 12.7656 236.396 12.5248 236.886 12.043C237.375 11.5011 237.681 10.8387 237.681 10.1764ZM231.014 6.50325C231.014 5.05809 229.852 3.85379 228.384 3.79357C227.65 3.79357 226.977 4.03443 226.488 4.51615C225.999 4.99787 225.693 5.66024 225.693 6.38282C225.693 7.82798 226.855 9.03228 228.323 9.0925C229.057 9.0925 229.73 8.85164 230.219 8.36992C230.708 7.8882 230.953 7.22583 231.014 6.50325ZM239.149 17.2215C239.149 15.7764 237.987 14.5721 236.519 14.5119C235.785 14.5119 235.112 14.7527 234.623 15.2344C234.133 15.7162 233.828 16.3785 233.828 17.1011C233.828 18.5463 234.99 19.7506 236.458 19.8108C237.192 19.8108 237.864 19.5699 238.354 19.0882C238.843 18.6065 239.149 17.9441 239.149 17.2215ZM230.402 12.886C230.402 11.6817 229.485 10.7183 228.262 10.6581C227.65 10.6581 227.1 10.8387 226.672 11.2602C226.243 11.6817 225.999 12.2237 225.999 12.7656C225.999 13.9699 226.916 14.9334 228.139 14.9936C228.751 14.9936 229.302 14.8129 229.73 14.3914C230.158 14.0301 230.402 13.4882 230.402 12.886ZM224.164 9.93551C224.164 8.49035 223.002 7.28605 221.534 7.22583C220.8 7.22583 220.127 7.46669 219.638 7.94841C219.148 8.43013 218.843 9.0925 218.843 9.81508C218.843 11.2602 220.005 12.4645 221.473 12.5248C222.207 12.5248 222.879 12.2839 223.369 11.8022C223.858 11.2602 224.164 10.5979 224.164 9.93551ZM223.613 17.342C223.613 15.8968 222.451 14.6925 220.983 14.6323C220.249 14.6323 219.577 14.8731 219.087 15.3549C218.598 15.8366 218.292 16.4989 218.292 17.2215C218.292 18.6667 219.454 19.871 220.922 19.9312C221.656 19.9312 222.329 19.6903 222.818 19.2086C223.308 18.7269 223.613 18.0645 223.613 17.342Z" fill="#1D1D1B"/>
<path d="M235.051 8.61084C235.296 8.61084 235.479 8.79148 235.479 9.03235C235.479 9.15278 235.418 9.27321 235.357 9.33342C235.296 9.39364 235.173 9.45385 235.051 9.45385C234.868 9.45385 234.684 9.51407 234.562 9.6345C234.44 9.75493 234.378 9.93557 234.317 10.1162C234.317 10.3571 234.134 10.5377 233.889 10.5377C233.644 10.5377 233.461 10.3571 233.461 10.1162C233.461 9.69471 233.644 9.33342 233.95 9.03235C234.256 8.73127 234.623 8.61084 235.051 8.61084Z" fill="white"/>
<path d="M237.192 10.8387C237.192 10.7785 237.253 10.7183 237.253 10.6581C237.192 10.7183 237.192 10.7785 237.192 10.8387Z" fill="black"/>
<path d="M237.131 10.9592C237.131 10.899 237.192 10.8388 237.192 10.7786C237.131 10.8388 237.131 10.899 237.131 10.9592Z" fill="black"/>
<path d="M237.008 11.1399C237.069 11.0797 237.069 11.0194 237.131 10.9592C237.069 11.0194 237.069 11.0797 237.008 11.1399Z" fill="black"/>
<path d="M236.03 12.1032C236.458 11.9226 236.825 11.5613 237.008 11.1398C236.764 11.5613 236.458 11.9226 236.03 12.1032Z" fill="black"/>
<path d="M229.791 4.81719C230.28 5.23869 230.586 5.84084 230.525 6.50321C230.525 7.70751 229.485 8.73117 228.262 8.67095C228.14 8.67095 227.956 8.67095 227.834 8.61074C227.773 8.61074 227.773 8.61074 227.712 8.61074C227.528 8.55052 227.406 8.49031 227.222 8.43009C227.222 8.43009 227.222 8.43009 227.161 8.43009C226.916 8.30966 226.672 8.12902 226.549 7.88816C226.488 7.76773 226.366 7.6473 226.305 7.52687C226.305 7.46665 226.244 7.40644 226.244 7.40644V7.34622C226.427 7.40644 226.611 7.46665 226.794 7.52687C227.1 8.00859 227.65 8.30966 228.262 8.30966C228.751 8.30966 229.241 8.12902 229.546 7.82794C229.913 7.46665 230.097 7.04515 230.097 6.56343C230.097 5.96127 229.791 5.41934 229.363 5.05805C229.363 4.8774 229.302 4.69676 229.241 4.51611C229.302 4.51611 229.302 4.57633 229.363 4.57633C229.363 4.57633 229.424 4.57633 229.424 4.63654C229.485 4.69676 229.608 4.75697 229.669 4.81719L229.73 4.8774C229.791 4.75697 229.791 4.75697 229.791 4.81719Z" fill="black"/>
<path d="M229.73 4.75708L229.791 4.8173C229.791 4.75708 229.791 4.75708 229.73 4.75708Z" fill="black"/>
<path d="M229.668 4.69678L229.73 4.75699C229.73 4.69678 229.668 4.69678 229.668 4.69678Z" fill="black"/>
<path d="M229.424 4.51615C229.424 4.51615 229.363 4.51615 229.363 4.45593C229.363 4.51615 229.424 4.51615 229.424 4.51615Z" fill="black"/>
<path d="M228.384 3.85383C229.852 3.85383 231.014 5.05813 231.014 6.5635C231.014 7.28608 230.708 7.94845 230.219 8.43017C229.73 8.91189 229.057 9.15275 228.323 9.15275C226.855 9.15275 225.693 7.94845 225.693 6.44307C225.693 5.72049 225.999 5.05813 226.488 4.57641C226.977 4.09469 227.65 3.79361 228.384 3.85383ZM230.586 6.50329C230.586 5.84092 230.28 5.23877 229.852 4.81727L229.791 4.75705L229.73 4.69684C229.669 4.63662 229.546 4.57641 229.485 4.51619C229.485 4.51619 229.424 4.51619 229.424 4.45598C229.363 4.45598 229.363 4.39576 229.302 4.39576C229.057 4.27533 228.751 4.21512 228.445 4.21512C227.222 4.21512 226.182 5.17856 226.182 6.38286C226.182 6.68393 226.243 7.04522 226.366 7.28608C226.366 7.3463 226.427 7.40651 226.427 7.40651C226.488 7.52694 226.549 7.64737 226.671 7.7678C226.855 8.00866 227.038 8.18931 227.283 8.30974C227.283 8.30974 227.283 8.30974 227.344 8.30974C227.467 8.36996 227.65 8.43017 227.834 8.49039C227.895 8.49039 227.895 8.49039 227.956 8.49039C228.078 8.49039 228.262 8.5506 228.384 8.5506C229.546 8.73125 230.525 7.70759 230.586 6.50329Z" fill="black"/>
<path d="M229.241 4.45591C229.302 4.63656 229.363 4.8172 229.363 4.99785C229.057 4.8172 228.69 4.63656 228.323 4.63656C227.834 4.63656 227.344 4.8172 227.039 5.11828C226.672 5.47957 226.488 5.90108 226.488 6.3828C226.488 6.74409 226.611 7.10538 226.794 7.40645C226.611 7.34624 226.427 7.34624 226.244 7.22581V7.28602C226.121 6.98495 226.06 6.68387 226.06 6.3828C226.06 5.17849 227.1 4.15484 228.323 4.21505C228.69 4.27527 228.996 4.33548 229.241 4.45591Z" fill="black"/>
<path d="M229.363 4.99792C229.852 5.35922 230.158 5.90115 230.097 6.5033C230.097 6.98502 229.913 7.40653 229.546 7.76782C229.179 8.12911 228.751 8.30975 228.262 8.24954C227.65 8.24954 227.1 7.94846 226.794 7.46674C226.916 7.46674 226.977 7.46674 227.1 7.46674C228.323 7.46674 229.363 6.5033 229.363 5.299C229.424 5.23878 229.424 5.11835 229.363 4.99792Z" fill="#697900"/>
<path d="M229.363 4.99791C229.363 5.11834 229.363 5.17856 229.363 5.29899C229.363 6.50329 228.323 7.52694 227.1 7.46673C226.978 7.46673 226.916 7.46673 226.794 7.46673C226.611 7.16565 226.488 6.80436 226.488 6.44307C226.488 5.96135 226.672 5.53985 227.039 5.17856C227.406 4.81727 227.834 4.63662 228.323 4.69684C228.751 4.69684 229.118 4.81727 229.363 4.99791ZM228.751 5.3592C228.751 5.11834 228.568 4.9377 228.323 4.9377C227.895 4.9377 227.528 5.05813 227.222 5.3592C226.916 5.66028 226.733 6.02157 226.733 6.44307C226.733 6.68393 226.916 6.86458 227.161 6.86458C227.406 6.86458 227.589 6.68393 227.589 6.44307C227.589 6.26243 227.65 6.08178 227.834 5.96135C227.956 5.84092 228.14 5.78071 228.323 5.78071C228.446 5.78071 228.568 5.72049 228.629 5.66028C228.69 5.60006 228.751 5.47963 228.751 5.3592Z" fill="#859300"/>
<path d="M235.785 12.2237C235.846 12.2237 235.907 12.1635 235.969 12.1635C235.969 12.1635 235.907 12.1635 235.785 12.2237Z" fill="black"/>
<path d="M235.663 12.2237C235.724 12.2237 235.785 12.1635 235.846 12.1635C235.785 12.2237 235.724 12.2237 235.663 12.2237Z" fill="black"/>
<path d="M228.384 4.93774C228.629 4.93774 228.812 5.11839 228.812 5.35925C228.812 5.47968 228.751 5.60011 228.69 5.66032C228.629 5.72054 228.507 5.78076 228.384 5.78076C228.201 5.78076 228.017 5.84097 227.895 5.9614C227.773 6.08183 227.711 6.26248 227.65 6.44312C227.65 6.68398 227.467 6.86463 227.222 6.86463C226.977 6.86463 226.794 6.68398 226.794 6.44312C226.794 6.02162 226.977 5.66032 227.283 5.35925C227.589 5.05817 227.956 4.93774 228.384 4.93774Z" fill="white"/>
<path d="M235.479 12.2838C235.54 12.2838 235.601 12.2838 235.662 12.2236C235.601 12.2838 235.54 12.2838 235.479 12.2838Z" fill="black"/>
<path d="M235.296 12.3441C235.357 12.3441 235.418 12.3441 235.479 12.3441C235.357 12.2839 235.357 12.3441 235.296 12.3441Z" fill="black"/>
<path d="M237.987 15.5355C238.476 15.957 238.782 16.5591 238.721 17.2215C238.721 18.4258 237.681 19.4495 236.458 19.3892C236.397 19.3892 236.336 19.3892 236.274 19.3892C236.213 19.3892 236.213 19.3892 236.152 19.3892C236.091 19.3892 236.03 19.3892 235.969 19.329C235.907 19.329 235.785 19.2688 235.724 19.2688C235.663 19.2688 235.663 19.2688 235.602 19.2086H235.541C235.479 19.2086 235.479 19.2086 235.418 19.1484C235.112 19.028 234.868 18.7871 234.684 18.6065L234.623 18.5462L234.562 18.486C234.501 18.4258 234.501 18.3656 234.44 18.3054V18.2452C234.44 18.2452 234.44 18.2452 234.44 18.1849C234.44 18.1849 234.44 18.1849 234.44 18.1247C234.44 18.0645 234.378 18.0645 234.378 18.0043C234.562 18.0645 234.745 18.1247 234.929 18.1849C235.235 18.6667 235.785 18.9677 236.397 18.9677C236.886 18.9677 237.375 18.7871 237.681 18.486C238.048 18.1247 238.232 17.7032 238.232 17.2215C238.232 16.6194 237.926 16.0774 237.498 15.7161C237.498 15.5355 237.437 15.3548 237.375 15.1742C237.375 15.1742 237.375 15.1742 237.437 15.1742H237.498C237.498 15.1742 237.498 15.1742 237.559 15.1742C237.559 15.1742 237.559 15.1742 237.62 15.1742H237.681C237.742 15.2344 237.804 15.2344 237.865 15.2946L237.926 15.3548C237.926 15.4753 237.987 15.5355 237.987 15.5355Z" fill="black"/>
<path d="M237.926 15.4753L237.987 15.5356L237.926 15.4753Z" fill="black"/>
<path d="M237.803 15.415L237.864 15.4753C237.864 15.4753 237.864 15.415 237.803 15.415Z" fill="black"/>
<path d="M237.436 15.1742C237.498 15.3549 237.559 15.5355 237.559 15.7161C237.253 15.5355 236.886 15.3549 236.519 15.3549C236.03 15.3549 235.54 15.5355 235.234 15.8366C234.867 16.1979 234.684 16.6194 234.684 17.1011C234.684 17.4624 234.806 17.8237 234.99 18.1247C234.806 18.0645 234.623 18.0645 234.439 17.9441C234.317 17.7032 234.256 17.4022 234.256 17.0409C234.256 15.8366 235.296 14.8129 236.519 14.8731C236.825 14.9936 237.131 15.0538 237.436 15.1742Z" fill="black"/>
<path d="M236.519 14.5721C237.987 14.5721 239.149 15.7764 239.149 17.2818C239.149 18.0044 238.843 18.6668 238.354 19.1485C237.864 19.6302 237.192 19.8711 236.458 19.8711C234.99 19.8711 233.828 18.6668 233.828 17.1614C233.828 16.4388 234.133 15.7764 234.623 15.2947C235.173 14.813 235.846 14.5721 236.519 14.5721ZM238.721 17.2216C238.721 16.5592 238.415 15.9571 237.987 15.5356L237.926 15.4754L237.864 15.4152C237.803 15.3549 237.742 15.3549 237.681 15.2947H237.62C237.62 15.2947 237.62 15.2947 237.559 15.2947C237.559 15.2947 237.559 15.2947 237.497 15.2947H237.436C237.436 15.2947 237.436 15.2947 237.375 15.2947C237.13 15.1743 236.825 15.1141 236.519 15.1141C235.296 15.1141 234.256 16.0775 234.256 17.2818C234.256 17.5829 234.317 17.884 234.439 18.185C234.439 18.2453 234.5 18.2453 234.5 18.3055C234.5 18.3055 234.5 18.3055 234.5 18.3657C234.5 18.3657 234.5 18.3657 234.5 18.4259V18.4861C234.562 18.5463 234.562 18.6066 234.623 18.6668L234.684 18.727L234.745 18.7872C234.929 19.0281 235.173 19.2087 235.479 19.3291C235.54 19.3291 235.54 19.3893 235.601 19.3893H235.663C235.724 19.3893 235.724 19.3893 235.785 19.4496C235.846 19.5098 235.968 19.5098 236.03 19.5098C236.091 19.5098 236.152 19.5098 236.213 19.57C236.274 19.57 236.274 19.57 236.335 19.57C236.396 19.57 236.458 19.57 236.519 19.57C237.681 19.4496 238.721 18.4861 238.721 17.2216Z" fill="black"/>
<path d="M237.559 15.7162C238.048 16.0775 238.354 16.6194 238.293 17.2216C238.293 17.7033 238.109 18.1248 237.742 18.4861C237.375 18.8474 236.947 19.028 236.458 18.9678C235.846 18.9678 235.296 18.6667 234.99 18.185C235.112 18.185 235.173 18.185 235.296 18.185C236.519 18.185 237.559 17.2216 237.559 16.0173C237.559 15.957 237.559 15.8366 237.559 15.7162Z" fill="#B6006F"/>
<path d="M232.972 11.0194C232.972 11.0796 233.033 11.1398 233.033 11.1398C233.033 11.0796 232.972 11.0194 232.972 11.0194Z" fill="black"/>
<path d="M233.277 11.5011C233.216 11.3806 233.094 11.2602 233.033 11.1398C233.094 11.2602 233.155 11.3806 233.277 11.5011Z" fill="black"/>
<path d="M233.277 11.5011C233.461 11.742 233.644 11.9226 233.889 12.043C233.644 11.9226 233.461 11.742 233.277 11.5011Z" fill="black"/>
<path d="M237.559 15.7162C237.559 15.8366 237.559 15.8968 237.559 16.0172C237.559 17.2215 236.519 18.2452 235.296 18.185C235.173 18.185 235.112 18.185 234.99 18.185C234.806 17.8839 234.684 17.5226 234.684 17.1613C234.684 16.6796 234.868 16.2581 235.235 15.8968C235.602 15.5355 236.03 15.3549 236.519 15.4151C236.886 15.4151 237.253 15.5355 237.559 15.7162ZM236.947 16.0775C236.947 15.8366 236.764 15.656 236.519 15.656C236.091 15.656 235.724 15.7764 235.418 16.0775C235.112 16.3785 234.929 16.7398 234.929 17.1613C234.929 17.4022 235.112 17.5828 235.357 17.5828C235.602 17.5828 235.785 17.4022 235.785 17.1613C235.785 16.9807 235.846 16.8 236.03 16.6796C236.152 16.5592 236.335 16.499 236.519 16.499C236.641 16.499 236.764 16.4388 236.825 16.3785C236.886 16.3183 236.947 16.1979 236.947 16.0775Z" fill="#EF0083"/>
<path d="M236.519 15.656C236.764 15.656 236.947 15.8367 236.947 16.0775C236.947 16.1979 236.886 16.3184 236.825 16.3786C236.764 16.4388 236.641 16.499 236.519 16.499C236.335 16.499 236.152 16.5592 236.03 16.6797C235.907 16.8001 235.846 16.9807 235.785 17.1614C235.785 17.4022 235.601 17.5829 235.357 17.5829C235.112 17.5829 234.929 17.4022 234.929 17.1614C234.929 16.7399 235.112 16.3786 235.418 16.0775C235.724 15.8367 236.091 15.656 236.519 15.656Z" fill="white"/>
<path d="M226.244 7.34631C226.244 7.40653 226.305 7.46674 226.305 7.46674C226.305 7.46674 226.305 7.40653 226.244 7.34631Z" fill="black"/>
<path d="M226.549 7.82797C226.488 7.70754 226.366 7.58711 226.305 7.46667C226.366 7.58711 226.488 7.70754 226.549 7.82797Z" fill="black"/>
<path d="M226.549 7.828C226.733 8.06886 226.916 8.24951 227.161 8.36994C226.977 8.24951 226.733 8.06886 226.549 7.828Z" fill="black"/>
<path d="M228.262 10.7183C229.485 10.7183 230.464 11.7419 230.403 12.9462C230.403 13.5484 230.158 14.0903 229.73 14.4516C229.302 14.8731 228.751 15.0537 228.14 15.0537C226.916 15.0537 225.938 14.0301 225.999 12.8258C225.999 12.2236 226.243 11.6817 226.672 11.3204C227.1 10.8989 227.65 10.658 228.262 10.7183ZM229.974 12.886C229.974 11.9226 229.24 11.1398 228.262 11.1398C227.283 11.1398 226.488 11.8623 226.488 12.8258C226.488 13.7892 227.222 14.572 228.201 14.572C229.179 14.6322 229.974 13.8494 229.974 12.886Z" fill="black"/>
<path d="M228.262 11.0796C229.241 11.0796 230.036 11.8624 229.974 12.8258C229.974 13.7893 229.179 14.5721 228.201 14.5118C227.222 14.5118 226.427 13.7291 226.488 12.7656C226.427 11.8624 227.283 11.0796 228.262 11.0796ZM229.546 12.886C229.546 12.1635 228.935 11.5613 228.201 11.5613C227.834 11.5613 227.528 11.6817 227.222 11.9226C226.916 12.1635 226.794 12.5248 226.794 12.8258C226.794 13.5484 227.406 14.1506 228.14 14.1506C228.507 14.1506 228.812 14.0301 229.118 13.7893C229.424 13.5484 229.546 13.2473 229.546 12.886Z" fill="black"/>
<path d="M235.969 19.3893C236.03 19.3893 236.091 19.3893 236.152 19.4495C236.091 19.3893 236.03 19.3893 235.969 19.3893Z" fill="black"/>
<path d="M235.602 19.2688C235.663 19.2688 235.663 19.2688 235.724 19.329C235.724 19.2688 235.663 19.2688 235.602 19.2688Z" fill="black"/>
<path d="M235.479 19.2086C235.54 19.2086 235.54 19.2688 235.601 19.2688C235.54 19.2086 235.479 19.2086 235.479 19.2086Z" fill="black"/>
<path d="M234.684 18.5463L234.623 18.4861C234.623 18.4861 234.684 18.4861 234.684 18.5463Z" fill="black"/>
<path d="M234.684 18.5463L234.745 18.6065L234.684 18.5463Z" fill="black"/>
<path d="M223.002 8.18926C223.491 8.61076 223.797 9.21291 223.736 9.87528C223.736 11.0796 222.696 12.1032 221.473 12.043C220.8 12.043 220.189 11.7419 219.76 11.2602L219.699 11.2C219.699 11.1398 219.638 11.1398 219.638 11.0796C219.638 11.0796 219.638 11.0796 219.638 11.0194C219.638 11.0194 219.638 10.9592 219.577 10.9592L219.516 10.8989C219.516 10.8387 219.455 10.7785 219.455 10.7785C219.455 10.7785 219.455 10.7785 219.455 10.7183C219.638 10.7785 219.822 10.8387 220.005 10.8989C220.311 11.3807 220.861 11.6817 221.473 11.6817C221.962 11.6817 222.452 11.5011 222.757 11.2C223.124 10.8387 223.308 10.4172 223.308 9.9355C223.308 9.33334 223.002 8.79141 222.574 8.43012C222.574 8.24947 222.513 8.06883 222.452 7.88818C222.452 7.88818 222.452 7.88818 222.513 7.88818C222.574 7.88818 222.635 7.9484 222.635 7.9484L222.696 8.00861C222.696 8.00861 222.757 8.00861 222.757 8.06883C222.757 8.06883 222.757 8.06883 222.819 8.06883C222.88 8.06883 222.88 8.12904 222.941 8.12904C222.941 8.18926 222.941 8.18926 223.002 8.18926Z" fill="black"/>
<path d="M222.941 8.12903L223.002 8.18924C222.941 8.18924 222.941 8.18924 222.941 8.12903Z" fill="black"/>
<path d="M222.757 8.06885C222.818 8.06885 222.818 8.12906 222.88 8.12906C222.88 8.12906 222.818 8.06885 222.757 8.06885Z" fill="black"/>
<path d="M222.696 8.0087L222.635 7.94849C222.635 7.94849 222.635 7.94849 222.696 8.0087Z" fill="black"/>
<path d="M222.574 7.9484C222.513 7.9484 222.513 7.88818 222.452 7.88818C222.513 7.88818 222.574 7.88818 222.574 7.9484Z" fill="black"/>
<path d="M221.534 7.22583C223.002 7.22583 224.164 8.43013 224.164 9.93551C224.164 10.6581 223.858 11.3205 223.369 11.8022C222.88 12.2839 222.207 12.5248 221.473 12.5248C220.005 12.5248 218.843 11.3205 218.843 9.81508C218.843 9.0925 219.149 8.43013 219.638 7.94841C220.127 7.46669 220.8 7.22583 221.534 7.22583ZM223.736 9.93551C223.736 9.27314 223.43 8.67099 223.002 8.24949L222.941 8.18927C222.88 8.12906 222.88 8.12906 222.818 8.12906C222.818 8.12906 222.818 8.12906 222.757 8.12906C222.757 8.12906 222.696 8.12906 222.696 8.06884L222.635 8.00863C222.574 8.00863 222.574 7.94841 222.513 7.94841C222.513 7.94841 222.513 7.94841 222.451 7.94841C222.207 7.82798 221.901 7.76777 221.595 7.76777C220.372 7.76777 219.332 8.73121 219.332 9.93551C219.332 10.2366 219.393 10.5377 219.516 10.8387C219.516 10.8387 219.516 10.8387 219.516 10.8989C219.516 10.9592 219.577 11.0194 219.577 11.0194L219.638 11.0796C219.638 11.0796 219.638 11.1398 219.699 11.1398C219.699 11.1398 219.699 11.1398 219.699 11.2C219.699 11.2602 219.76 11.2602 219.76 11.3205L219.821 11.3807C220.25 11.8624 220.861 12.1635 221.534 12.1635C222.696 12.1033 223.736 11.1398 223.736 9.93551Z" fill="black"/>
<path d="M222.39 7.82802C222.452 8.00866 222.513 8.18931 222.513 8.36995C222.207 8.18931 221.84 8.00866 221.473 8.00866C220.984 8.00866 220.494 8.18931 220.189 8.49038C219.883 8.79146 219.638 9.27318 219.638 9.7549C219.638 10.1162 219.76 10.4775 219.944 10.7786C219.76 10.7183 219.577 10.7183 219.393 10.5979C219.271 10.3571 219.21 10.056 219.21 9.69469C219.21 8.49038 220.25 7.46673 221.473 7.52694C221.84 7.64737 222.146 7.70759 222.39 7.82802Z" fill="black"/>
<path d="M222.574 8.43018C223.063 8.79147 223.369 9.3334 223.308 9.93555C223.308 10.4173 223.124 10.8388 222.757 11.2001C222.39 11.5614 221.962 11.742 221.473 11.6818C220.861 11.6818 220.311 11.3807 220.005 10.899C220.127 10.899 220.188 10.899 220.311 10.899C221.534 10.899 222.574 9.93555 222.574 8.73125C222.574 8.61082 222.574 8.49039 222.574 8.43018Z" fill="#CC0000"/>
<path d="M222.574 8.43019C222.574 8.55062 222.574 8.61083 222.574 8.73127C222.574 9.93557 221.534 10.9592 220.311 10.899C220.189 10.899 220.127 10.899 220.005 10.899C219.822 10.5979 219.699 10.2366 219.699 9.87535C219.699 9.39363 219.883 8.97213 220.25 8.61084C220.617 8.24954 221.045 8.0689 221.534 8.12911C221.901 8.0689 222.268 8.18933 222.574 8.43019ZM221.962 8.79148C221.962 8.55062 221.779 8.36997 221.534 8.36997C221.106 8.36997 220.739 8.49041 220.433 8.79148C220.127 9.09256 219.944 9.45385 219.944 9.87535C219.944 10.1162 220.127 10.2969 220.372 10.2969C220.617 10.2969 220.8 10.1162 220.8 9.87535C220.8 9.69471 220.861 9.51406 221.045 9.39363C221.167 9.2732 221.351 9.21299 221.534 9.21299C221.656 9.21299 221.779 9.15277 221.84 9.09256C221.901 8.97213 221.962 8.91191 221.962 8.79148Z" fill="#FF5200"/>
<path d="M221.534 8.37C221.779 8.37 221.962 8.55064 221.962 8.7915C221.962 8.91193 221.901 9.03236 221.84 9.09258C221.779 9.15279 221.656 9.21301 221.534 9.21301C221.351 9.21301 221.167 9.27322 221.045 9.39365C220.922 9.51408 220.861 9.69473 220.8 9.87537C220.8 10.1162 220.617 10.2969 220.372 10.2969C220.127 10.2969 219.944 10.1162 219.944 9.87537C219.944 9.45387 220.127 9.09258 220.433 8.7915C220.739 8.49043 221.106 8.37 221.534 8.37Z" fill="white"/>
<path d="M219.516 10.899C219.516 10.8388 219.455 10.7786 219.455 10.7786C219.455 10.7786 219.455 10.8388 219.516 10.899Z" fill="black"/>
<path d="M219.516 10.9591L219.455 10.8989C219.516 10.8989 219.516 10.9591 219.516 10.9591Z" fill="black"/>
<path d="M219.699 11.2C219.699 11.1398 219.638 11.1398 219.638 11.0796C219.638 11.1398 219.638 11.1398 219.699 11.2Z" fill="black"/>
<path d="M219.699 11.2001C219.699 11.2603 219.699 11.2603 219.699 11.2001C219.76 11.2603 219.699 11.2603 219.699 11.2001Z" fill="black"/>
<path d="M222.451 15.656C222.94 16.0775 223.246 16.6796 223.185 17.342C223.185 18.5463 222.145 19.5699 220.922 19.5097C220.677 19.5097 220.372 19.4495 220.127 19.3893C220.066 19.3893 220.005 19.3291 220.005 19.3291C219.943 19.3291 219.943 19.2689 219.882 19.2689C219.638 19.1484 219.393 18.9678 219.209 18.7269C219.209 18.7269 219.209 18.7269 219.148 18.6667L219.087 18.6065C219.087 18.5463 219.026 18.5463 219.026 18.4861C219.026 18.4861 219.026 18.4861 219.026 18.4259V18.3656C219.026 18.3054 218.965 18.3054 218.965 18.2452V18.185V18.1248C219.148 18.185 219.332 18.2452 219.515 18.3054C219.821 18.7872 220.372 19.0882 220.983 19.0882C221.473 19.0882 221.962 18.9076 222.268 18.6065C222.635 18.2452 222.818 17.8237 222.818 17.342C222.818 16.7398 222.512 16.1979 222.084 15.8366C222.084 15.656 222.023 15.4753 221.962 15.2947C222.023 15.2947 222.023 15.3549 222.084 15.3549C222.084 15.3549 222.145 15.3549 222.145 15.4151C222.207 15.4753 222.329 15.5355 222.39 15.5958L222.451 15.656C222.451 15.656 222.39 15.5958 222.451 15.656Z" fill="black"/>
<path d="M222.39 15.5957L222.451 15.6559L222.39 15.5957Z" fill="black"/>
<path d="M222.268 15.5355L222.329 15.5957C222.329 15.5957 222.329 15.5355 222.268 15.5355Z" fill="black"/>
<path d="M222.023 15.3549C222.023 15.3549 221.962 15.3549 221.962 15.2947C222.023 15.3549 222.023 15.3549 222.023 15.3549Z" fill="black"/>
<path d="M220.984 14.6925C222.452 14.6925 223.614 15.8968 223.614 17.4022C223.614 18.1248 223.308 18.7871 222.819 19.2688C222.329 19.7506 221.656 19.9914 220.923 19.9914C219.455 19.9914 218.292 18.7871 218.292 17.2818C218.292 16.5592 218.598 15.8968 219.088 15.4151C219.638 14.9334 220.311 14.6925 220.984 14.6925ZM223.186 17.342C223.186 16.6796 222.88 16.0775 222.452 15.6559L222.39 15.5957L222.329 15.5355C222.268 15.4753 222.146 15.4151 222.085 15.3549C222.085 15.3549 222.023 15.3549 222.023 15.2947C221.962 15.2947 221.962 15.2344 221.901 15.2344C221.656 15.114 221.351 15.0538 221.045 15.0538C219.822 15.0538 218.782 16.0172 218.782 17.2215C218.782 17.5226 218.843 17.8839 218.965 18.1248V18.185C218.965 18.2452 219.026 18.2452 219.026 18.3054V18.3656C219.026 18.3656 219.026 18.3656 219.026 18.4258C219.026 18.4861 219.088 18.5463 219.088 18.5463L219.149 18.6065C219.149 18.6065 219.149 18.6065 219.21 18.6667C219.393 18.9076 219.638 19.0882 219.883 19.2086C219.944 19.2086 219.944 19.2688 220.005 19.2688C220.066 19.2688 220.127 19.3291 220.127 19.3291C220.372 19.4495 220.617 19.4495 220.923 19.4495C222.146 19.5699 223.186 18.6065 223.186 17.342Z" fill="black"/>
<path d="M221.901 15.2947C221.962 15.4753 222.023 15.6559 222.023 15.8366C221.717 15.6559 221.35 15.4753 220.983 15.4753C220.494 15.4753 220.005 15.6559 219.699 15.957C219.332 16.3183 219.148 16.7398 219.148 17.2215C219.148 17.5828 219.271 17.9441 219.454 18.2452C219.271 18.185 219.087 18.185 218.904 18.0646V18.1248C218.781 17.8237 218.72 17.5226 218.72 17.2215C218.72 16.0172 219.76 14.9936 220.983 15.0538C221.289 15.114 221.595 15.1742 221.901 15.2947Z" fill="black"/>
<path d="M222.023 15.8365C222.513 16.1978 222.819 16.7398 222.757 17.3419C222.757 17.8236 222.574 18.2452 222.207 18.6064C221.84 18.9677 221.412 19.1484 220.923 19.0882C220.311 19.0882 219.76 18.7871 219.455 18.3054C219.577 18.3054 219.638 18.3054 219.76 18.3054C220.984 18.3054 222.023 17.3419 222.023 16.1376C222.023 16.0774 222.023 15.957 222.023 15.8365Z" fill="#FFA800"/>
<path d="M222.023 15.8367C222.023 15.9571 222.023 16.0173 222.023 16.1377C222.023 17.342 220.983 18.3657 219.76 18.3055C219.638 18.3055 219.577 18.3055 219.454 18.3055C219.271 18.0044 219.148 17.6431 219.148 17.2818C219.148 16.8001 219.332 16.3786 219.699 16.0173C220.066 15.656 220.494 15.4754 220.983 15.5356C221.35 15.5356 221.717 15.656 222.023 15.8367ZM221.411 16.1979C221.411 15.9571 221.228 15.7764 220.983 15.7764C220.555 15.7764 220.188 15.8969 219.882 16.1979C219.577 16.499 219.393 16.8603 219.393 17.2818C219.393 17.5227 219.577 17.7033 219.821 17.7033C220.066 17.7033 220.249 17.5227 220.249 17.2818C220.249 17.1012 220.311 16.9205 220.494 16.8001C220.616 16.6797 220.8 16.6195 220.983 16.6195C221.106 16.6195 221.228 16.5592 221.289 16.499C221.35 16.4388 221.411 16.3184 221.411 16.1979Z" fill="#FFC02C"/>
<path d="M220.983 15.7764C221.228 15.7764 221.411 15.957 221.411 16.1979C221.411 16.3183 221.35 16.4387 221.289 16.4989C221.228 16.5592 221.106 16.6194 220.983 16.6194C220.8 16.6194 220.616 16.6796 220.494 16.8C220.372 16.9205 220.311 17.1011 220.249 17.2817C220.249 17.5226 220.066 17.7032 219.821 17.7032C219.577 17.7032 219.393 17.5226 219.393 17.2817C219.393 16.8602 219.577 16.4989 219.882 16.1979C220.188 15.957 220.555 15.7764 220.983 15.7764Z" fill="white"/>
<path d="M220.005 19.3291C220.066 19.3291 220.127 19.3893 220.127 19.3893C220.066 19.3893 220.066 19.3291 220.005 19.3291Z" fill="black"/>
<path d="M219.882 19.2688C219.943 19.2688 219.943 19.329 220.005 19.329C219.943 19.329 219.943 19.2688 219.882 19.2688Z" fill="black"/>
<path d="M218.904 18.2452C218.904 18.3055 218.965 18.3055 218.965 18.3657C218.965 18.3055 218.904 18.2452 218.904 18.2452Z" fill="black"/>
<path d="M218.965 18.3656C218.965 18.4258 219.026 18.4258 218.965 18.3656C219.026 18.4258 218.965 18.4258 218.965 18.3656Z" fill="black"/>
<path d="M219.149 18.6667L219.087 18.6064C219.087 18.6064 219.149 18.6064 219.149 18.6667Z" fill="black"/>
</svg>
